<svg xmlns="http://www.w3.org/2000/svg" viewBox="0 0 700 700"><path d="M493.752 611.246c10.1-5.54 22.794-1.842 28.335 8.253 5.54 10.1 1.842 22.794-8.253 28.334-24.525 13.522-51.096 24.136-79.184 31.34-27.281 7.004-55.664 10.722-84.656 10.722-93.857 0-178.833-38.046-240.336-99.553-61.507-61.503-99.553-146.484-99.553-240.336 0-93.857 38.046-178.833 99.553-240.348 61.503-61.502 146.484-99.553 240.336-99.553s178.833 38.056 240.348 99.553c61.502 61.508 99.553 146.484 99.553 240.348 0 30.596-2.61 57.852-7.184 81.9-5.103 26.82-12.65 49.478-21.774 68.175-18.541 38.023-47.436 61.065-77.779 71.286-19.043 6.41-38.63 7.762-56.612 4.574-18.59-3.29-35.698-11.407-49.099-23.733-17.026-15.67-27.913-37.895-28.229-65.419-.01-.675.024-1.341.083-2.007-22.6 24.647-49.137 43.115-76.768 54.25-43.602 17.58-90.13 17.167-129.2-5.39-39.15-22.556-62.776-62.702-69.367-109.336-6.255-44.292 3.019-94.722 29.313-140.934l1.546-2.693c26.878-45.919 65.969-79.237 107.562-95.99 43.64-17.594 90.197-17.176 129.288 5.39 19.727 11.388 35.504 27.267 47.154 46.193l4.593-28.827c1.803-11.358 12.486-19.11 23.84-17.307 11.358 1.803 19.11 12.486 17.307 23.84L490.904 488.08c.549 14.163 6.182 25.497 14.79 33.43 7.407 6.813 17.19 11.362 28.048 13.282 11.47 2.027 23.99 1.162 36.185-2.945 20.481-6.897 40.277-23.028 53.453-50.051 7.67-15.719 14.032-34.834 18.353-57.561 4.058-21.288 6.362-45.954 6.362-74.23 0-82.314-33.38-156.848-87.31-210.786C506.845 85.29 432.318 51.91 350 51.91c-82.318 0-156.835 33.37-210.773 87.31-53.94 53.94-87.31 128.467-87.31 210.785 0 82.318 33.37 156.848 87.31 210.773 53.93 53.94 128.467 87.31 210.773 87.31 25.9 0 50.82-3.218 74.371-9.259 24.336-6.236 47.63-15.586 69.39-27.587zm-24.112-306.13c-4.821-34.12-21.502-63.155-48.875-78.955-27.34-15.787-60.84-15.704-92.865-2.79-33.628 13.546-65.483 41.04-87.606 79.251l-.122.224c-22.095 38.275-29.997 79.712-24.905 115.742 4.822 34.119 21.502 63.154 48.875 78.955 27.33 15.79 60.832 15.703 92.866 2.79 33.428-13.473 65.08-40.657 87.134-78.387l.584-1.079c22.104-38.285 30.007-79.728 24.909-115.747z"/></svg>