<svg xmlns="http://www.w3.org/2000/svg" width="92" height="65"><g fill="none" fill-rule="evenodd" stroke="#3f6651" stroke-linejoin="round" stroke-width="4.8"><path stroke-linecap="round" d="M47.08 31c3.868 8.238 11.928 14.27 11.928 14.27L59.046 62H79.08V51.721"/><path stroke-linecap="round" d="M78.744 62H89.08l-.234-12.729c-.708-8.237-3.386-10.827-12.275-11.948l-6.058 4.864-5.794-6.891C58.444 32.576 53.524 25.956 51.08 22"/><path d="M72.58 32c5.244 0 9.5-4.252 9.5-9.499 0-5.245-4.256-9.501-9.5-9.501-5.246 0-9.5 4.256-9.5 9.501 0 5.247 4.254 9.499 9.5 9.499Z"/><path stroke-linecap="round" d="M13.479 62H3.08l.235-12.58c.84-9.764 4.437-11.737 17.804-12.584 14.655-.93 21.985-18.362 21.985-18.362.836-2.274 3.79-3.207 6.062-1.83 2.026 1.23 2.234 3.35 1.587 5.172-5.523 17.708-17.416 23.6-17.416 23.6L33.3 62H13.48v-9.968"/><path d="M12.08 20.5a9.5 9.5 0 0 0 9.5 9.5c5.245 0 9.5-4.252 9.5-9.5 0-5.245-4.255-9.5-9.5-9.5-5.246 0-9.5 4.255-9.5 9.5Z"/><path stroke-linecap="round" d="m50.08 3-1 5m-5.987-5 .973 6M58.08 7l-4 4"/></g></svg>