<svg xmlns="http://www.w3.org/2000/svg" xmlns:xlink="http://www.w3.org/1999/xlink" width="75" height="75"><defs><path id="a" d="m648.89 857.89 4.333-10.113-10.112 4.334-4.334 10.113 10.112-4.334zm7.858-16.7a2.332 2.332 0 0 1 3.063 3.063l-7 16.332a2.322 2.322 0 0 1-1.226 1.226l-16.333 7a2.333 2.333 0 0 1-3.063-3.063l7-16.332a2.324 2.324 0 0 1 1.226-1.226l16.333-7zM645.5 888.312c18.093 0 32.813-14.719 32.813-32.812s-14.72-32.813-32.813-32.813-32.813 14.72-32.813 32.813 14.72 32.813 32.813 32.813zm0-70.312c20.677 0 37.5 16.823 37.5 37.5S666.177 893 645.5 893 608 876.177 608 855.5s16.823-37.5 37.5-37.5zm0 14c-1.382 0-2.5-1.044-2.5-2.333v-2.334c0-1.29 1.118-2.333 2.5-2.333s2.5 1.044 2.5 2.333v2.334c0 1.29-1.118 2.333-2.5 2.333zm0 47c1.382 0 2.5 1.044 2.5 2.333v2.334c0 1.29-1.118 2.333-2.5 2.333s-2.5-1.044-2.5-2.333v-2.334c0-1.29 1.118-2.333 2.5-2.333zm-25.833-26c1.29 0 2.333 1.118 2.333 2.5s-1.044 2.5-2.333 2.5h-2.334c-1.29 0-2.333-1.118-2.333-2.5s1.044-2.5 2.333-2.5h2.334zm54 0c1.29 0 2.333 1.118 2.333 2.5s-1.044 2.5-2.333 2.5h-2.334c-1.29 0-2.333-1.118-2.333-2.5s1.044-2.5 2.333-2.5h2.334z"/></defs><use xlink:href="#a" fill="#3F6651" fill-rule="evenodd" transform="translate(-608 -818)"/></svg>