<svg xmlns="http://www.w3.org/2000/svg" xmlns:xlink="http://www.w3.org/1999/xlink" width="72" height="71"><defs><path id="a" d="M1 69h70V2H1z"/></defs><g fill="none" fill-rule="evenodd" transform="translate(3 3)"><path stroke="#3F6651" stroke-linecap="round" stroke-linejoin="round" stroke-width="4.8" d="M50.875 31.808c-5.708 0-9.362 2.917-12.327 7.346l4.937 3.374c-3.836-2.789-6.977-5.18-11.337-5.18-7.972 0-15.648 5.985-15.648 5.985s8.708-6.223 8.708-12.216c0-5.781-2.75-10.832-2.75-16.827 0 0 13.063 4.38 14.667 1.382 1.146-2.14 3.396-7.563 1.375-10.371C36.57 2.62 30.24 0 24.292 0 14.207 0 0 33.652 0 48.404 0 63.157 26.125 65 49.5 65 58.208 65 66 57.57 66 48.404c0-9.165-7.218-16.596-15.125-16.596z"/><path stroke="#3F6651" stroke-linecap="round" stroke-linejoin="round" stroke-width="4" d="M36.995 13c-.057-.01-5.73-1.1-7.416-2.553-.4-.344-.592-.744-.578-1.188.039-1.155 1.494-2.248 1.508-2.259l.014.02c-.014.013-1.458 1.098-1.496 2.24-.016.435.176.827.568 1.165 1.681 1.45 7.347 2.538 7.405 2.548l-.005.027z"/><mask id="b" fill="#fff"><use xlink:href="#a"/></mask><path stroke="#3F6651" stroke-linecap="round" stroke-linejoin="round" stroke-width="4.8" d="M47 5.51h7v-.02h-7zm4 7h11v-.02H51zm-3 6h10v-.02H48z" mask="url(#b)"/></g></svg>