<svg xmlns="http://www.w3.org/2000/svg" viewBox="0 0 700 700"><path d="M667.468 182.61H521.066c28.037-15.105 46.15-38.929 46.15-66.534 0-45.38-52.163-100.252-116.96-100.252-45.082 0-80.67 52.402-100.252 100.753C330.418 68.226 294.83 15.824 249.746 15.824c-64.797 0-116.965 54.872-116.965 100.252 0 27.605 18.113 51.43 46.15 66.534H32.529c-9.225 0-16.707 7.489-16.707 16.708v83.544h668.356v-83.544c0-9.22-7.488-16.708-16.707-16.708zm-354.527-5.309c-17.35-4.912-38.97-11.096-63.195-11.096-45.28 0-83.544-22.96-83.544-50.13 0-26.3 35.893-66.836 83.544-66.836 39.733 0 80.842 93.003 83.178 133.038-5.082-.734-12.366-2.809-19.983-4.976zm137.31-11.096c-24.225 0-45.852 6.184-63.194 11.096-7.815 2.203-15.304 4.377-20.351 5.047.437-34.89 42.71-133.109 83.545-133.109 47.651 0 83.544 40.537 83.544 66.837 0 27.169-38.263 50.13-83.544 50.13zM283.163 316.282h133.674v367.894H283.163ZM82.656 667.467c0 9.225 7.488 16.708 16.707 16.708h150.38V316.28H82.655zM450.252 684.176h150.38c9.225 0 16.708-7.488 16.708-16.707V316.283H450.25z"/></svg>