<svg xmlns="http://www.w3.org/2000/svg" width="78" height="64"><path fill="#3F6651" fill-rule="evenodd" stroke="#3F6651" d="M63.83 4.447H43.522c-1.593.074-2.917 1.441-3.015 3.026v27.016h20.366V24.266c.02-3.501 2.49-6.845 5.972-7.56V7.474c0-1.506-1.514-3.027-3.015-3.027zm-29.752 0H13.77c-1.5 0-3.015 1.521-3.015 3.027v9.232c3.554.748 5.883 4.015 5.972 7.56v10.223h20.366V7.474l-.018-.283c-.286-1.479-1.475-2.65-2.997-2.744zm34.401 15.76c-2.33 0-4.218 1.903-4.218 4.25v12.062c0 .984-.791 1.782-1.766 1.782H14.618a1.774 1.774 0 0 1-1.766-1.782V24.457c0-2.347-1.889-4.25-4.22-4.25s-4.218 1.903-4.218 4.25V42.55c0 2.346 1.889 4.25 4.219 4.25h59.846c2.33 0 4.22-1.904 4.22-4.25V24.457c0-2.347-1.89-4.25-4.22-4.25zM33.997 1c1.915.004 3.481.898 4.803 2.228C40.061 1.86 41.748 1.052 43.603 1H64.02c3.465 0 6.575 3.129 6.575 6.617v9.3c3.573.752 5.915 4.043 6.005 7.614v18.122c0 4.322-3.482 7.825-7.777 7.825h-2.421l2.918 9.784a1.786 1.786 0 0 1-1.188 2.222 1.77 1.77 0 0 1-2.206-1.196l-3.224-10.81H14.898l-3.224 10.81a1.77 1.77 0 0 1-2.206 1.196 1.786 1.786 0 0 1-1.188-2.222l2.918-9.784H8.777C4.482 50.478 1 46.975 1 42.653V24.531c.022-3.526 2.503-6.894 6.005-7.614v-9.3C7.005 4.129 10.115 1 13.58 1h20.417z"/></svg>