<svg xmlns="http://www.w3.org/2000/svg" width="101" height="86"><path d="M3.659.864a3.331 3.331 0 1 0 .346 6.653h10.743l13.757 50.767a3.327 3.327 0 0 0 3.223 2.46h54.336a3.327 3.327 0 1 0 0-6.653H34.292l-1.213-4.435h55.203a3.327 3.327 0 0 0 3.222-2.426l8.872-32.158a3.327 3.327 0 0 0-3.223-4.228H22.579l-2.044-7.52a3.327 3.327 0 0 0-3.223-2.46H4.005a3.327 3.327 0 0 0-.346 0zM24.38 17.497h68.371l-7.035 25.505h-54.44ZM40.6 65.18c-5.473 0-9.98 4.508-9.98 9.98 0 5.473 4.507 9.98 9.98 9.98 5.472 0 9.98-4.507 9.98-9.98 0-5.472-4.508-9.98-9.98-9.98zm37.703 0c-5.473 0-9.98 4.508-9.98 9.98 0 5.473 4.507 9.98 9.98 9.98 5.472 0 9.98-4.507 9.98-9.98 0-5.472-4.508-9.98-9.98-9.98zm-37.703 6.654c1.877 0 3.327 1.45 3.327 3.326 0 1.877-1.45 3.327-3.327 3.327s-3.327-1.45-3.327-3.327c0-1.876 1.45-3.326 3.327-3.326zm37.703 0c1.876 0 3.326 1.45 3.326 3.326 0 1.877-1.45 3.327-3.326 3.327-1.877 0-3.327-1.45-3.327-3.327 0-1.876 1.45-3.326 3.327-3.326z" style="color:#000;font-style:normal;font-variant:normal;font-weight:400;font-stretch:normal;font-size:medium;line-height:normal;font-family:Sans;-inkscape-font-specification:Sans;text-indent:0;text-align:start;text-decoration:none;text-decoration-line:none;letter-spacing:normal;word-spacing:normal;text-transform:none;writing-mode:lr-tb;direction:ltr;baseline-shift:baseline;text-anchor:start;display:inline;overflow:visible;visibility:visible;opacity:1;fill:#000;fill-opacity:1;stroke:none;stroke-width:6.65342;marker:none;enable-background:accumulate"/></svg>