<svg xmlns="http://www.w3.org/2000/svg" xmlns:xlink="http://www.w3.org/1999/xlink" width="75" height="75"><defs><path id="a" d="M97.519 40.33c1.508-1.718 4.228-1.772 5.812-.16l.15.161 5.808 6.626 8.45-2.406a3.953 3.953 0 0 1 2.812.258l.215.114.194.118a4.019 4.019 0 0 1 1.74 2.541l.042.226 1.339 8.744 8.391 2.585a3.992 3.992 0 0 1 2.242 1.769l.11.199.101.205c.439.972.476 2.075.11 3.072l-.092.228-3.56 8.087 5.67 6.748c.641.762.974 1.731.945 2.712l-.013.226-.026.227a4.022 4.022 0 0 1-1.565 2.66l-.186.132-7.327 4.864 1.156 8.768a4.049 4.049 0 0 1-.661 2.802l-.134.186-.145.18a3.971 3.971 0 0 1-2.735 1.373l-.227.009-8.766.093-3.727 8.014a3.998 3.998 0 0 1-2.04 1.987l-.206.081-.211.069a3.954 3.954 0 0 1-3.045-.317l-.217-.128-7.423-4.706-7.424 4.706a3.943 3.943 0 0 1-2.777.56l-.237-.048-.218-.058a3.987 3.987 0 0 1-2.385-1.944l-.103-.205-3.726-8.011-8.764-.093a3.963 3.963 0 0 1-2.654-1.062l-.163-.16-.155-.17a4.046 4.046 0 0 1-.956-2.929l.023-.227 1.156-8.771-7.323-4.862a4.012 4.012 0 0 1-1.664-2.337l-.05-.221-.039-.226a4.041 4.041 0 0 1 .762-2.994l.142-.18 5.67-6.748-3.56-8.09a4.056 4.056 0 0 1-.154-2.842l.08-.23.095-.228a4.002 4.002 0 0 1 2.241-2.098l.216-.074 8.385-2.583 1.34-8.746a4.026 4.026 0 0 1 1.415-2.496l.179-.139.187-.128a3.954 3.954 0 0 1 3.012-.544l.221.055 8.437 2.403 5.81-6.627zm2.98 4.241-6.076 6.932a2.494 2.494 0 0 1-2.373.805l-.187-.046-8.827-2.515-1.401 9.15a2.53 2.53 0 0 1-1.413 1.905l-.164.07-.17.06-8.773 2.701 3.724 8.462c.339.77.273 1.651-.156 2.355l-.105.159-.119.152-5.932 7.058 7.663 5.09a2.538 2.538 0 0 1 1.13 2.088l-.005.18-.018.18-1.209 9.175 9.17.098a2.503 2.503 0 0 1 2.07 1.141l.091.154.083.161 3.897 8.38 7.767-4.922a2.488 2.488 0 0 1 2.33-.18l.172.083.165.097 7.766 4.922 3.899-8.38c.358-.77 1.07-1.3 1.888-1.426l.176-.021.18-.009 9.168-.098-1.208-9.175a2.545 2.545 0 0 1 .824-2.23l.137-.114.147-.105 7.662-5.088-5.932-7.06a2.55 2.55 0 0 1-.507-2.302l.056-.183.071-.18 3.722-8.462-8.771-2.702a2.52 2.52 0 0 1-1.667-1.683l-.046-.173-.034-.178-1.401-9.149-8.827 2.514a2.49 2.49 0 0 1-2.296-.5l-.131-.119-.132-.14-6.077-6.932zm0 9.92c12.02 0 21.793 9.864 21.793 21.996 0 12.132-9.773 21.998-21.792 21.998-12.019 0-21.792-9.866-21.792-21.998 0-12.132 9.773-21.997 21.792-21.997zm0 5.063c-9.247 0-16.775 7.598-16.775 16.933S91.252 93.42 100.5 93.42c9.248 0 16.775-7.599 16.775-16.934s-7.527-16.933-16.775-16.933zM111.43 68a2.55 2.55 0 0 1 .25 3.44l-.117.138L99.6 84.603a2.492 2.492 0 0 1-3.45.22l-.135-.123-6.489-6.35a2.549 2.549 0 0 1-.055-3.58 2.491 2.491 0 0 1 3.414-.177l.133.121 4.647 4.547 10.22-11.125a2.492 2.492 0 0 1 3.544-.135z"/></defs><use xlink:href="#a" fill="#3F6651" transform="translate(-63 -39)"/></svg>