<svg xmlns="http://www.w3.org/2000/svg" xmlns:xlink="http://www.w3.org/1999/xlink" width="66" height="77"><defs><path id="a" d="M0 .043h65.81V76.86H0z"/></defs><g fill="none" fill-rule="evenodd"><g transform="translate(0 .138)"><mask id="b" fill="#fff"><use xlink:href="#a"/></mask><path fill="#3F6651" d="M60.902 32.452c-1.512 4.866-4.165 9.75-6.73 14.472-2.749 5.06-5.345 9.838-6.49 14.415-1.23 4.924.249 8.953 2.224 11.72h-4.348c-7.196 0-16.92.01-21.927.016 1.42-2.982 2.723-7.556-.397-10.803-.933-.97-2.235-1.461-3.873-1.461-.98 0-1.947.162-2.883.318-.75.124-1.457.243-1.997.243-.265 0-.4-.03-.458-.047-.96-.29-1.782-1.018-1.282-4.383l.028-.187c.13-.913-.056-2.083-1.485-2.827.15-.242.32-.496.487-.714a1.89 1.89 0 0 0-1.91-2.991c.492-1.044.983-2.538.759-4.054a1.894 1.894 0 0 0-2.266-1.571c-.896.191-1.937.388-2.856.388-1.459 0-1.654-.479-1.719-.62-.104-1.018 2.515-4.114 3.501-5.28.846-1 1.513-1.79 1.872-2.43 1.714-3.073-.36-5.064-1.246-5.914-.11-.105-.257-.247-.358-.355.075-.326.364-.96.583-1.44.327-.712.697-1.521.994-2.464 2.846-9.038 7.456-18.691 20.065-21.76 2.458-.598 4.981-.9 7.498-.9 8.94 0 17.01 3.71 21.586 9.924 3.883 5.273 4.793 11.743 2.628 18.705m.415-20.947C56.032 4.327 46.825.043 36.687.043c-2.816 0-5.64.339-8.39 1.007C11.916 5.035 7.434 19.27 5.52 25.348c-.227.72-.53 1.385-.825 2.027-.62 1.357-1.26 2.759-.771 4.224.27.819.852 1.377 1.364 1.869.856.821.845.84.562 1.346-.178.321-.856 1.124-1.455 1.83C2.037 39.432-.896 42.9.26 45.73c.566 1.386 1.933 3.036 5.238 3.036.296 0 .591-.013.886-.036a5.65 5.65 0 0 1-.404.701 1.892 1.892 0 0 0-.25 1.687 4.637 4.637 0 0 0 1.622 2.205c-.526 1.391-.168 2.107-.019 2.407.388.774 1.055 1.133 1.581 1.332-.58 5.321 1.84 7.228 4.022 7.883 1.144.345 2.708.155 4.163-.088.784-.131 1.595-.266 2.262-.266.859 0 1.076.227 1.148.301 2.665 2.772-1.641 8.906-1.682 8.965a1.89 1.89 0 0 0 1.527 3.002h.003s15.093-.02 25.2-.02c6.956 0 8.514.01 8.79.016a1.891 1.891 0 0 0 1.156-3.472c-.06-.038-5.946-3.951-4.153-11.128 1.028-4.11 3.513-8.683 6.143-13.526 2.653-4.884 5.397-9.934 7.019-15.155 2.499-8.04 1.364-15.878-3.195-22.07" mask="url(#b)"/></g><path fill="#3F6651" d="M50.04 31.055c-.126 0-.252-.004-.383-.014-1.02-.073-1.768-.264-2.355-.602a1.89 1.89 0 0 0-2.485.546c-2.072 2.926-5.204 4.603-8.59 4.603-2.547 0-5.026-.983-6.98-2.769a1.895 1.895 0 0 0-2.069-.32 6.272 6.272 0 0 1-2.657.589c-3.752 0-6.805-3.314-6.805-7.39 0-4.077 3.053-7.394 6.805-7.394.281 0 .555.026.826.061.738.1 1.468-.249 1.858-.885 2.015-3.284 5.388-5.246 9.021-5.246 3.73 0 7.026 1.829 8.819 4.89.33.564.93.919 1.584.934 2.312.057 7.69.864 7.69 7.127 0 .601-.12 5.87-4.28 5.87M47.75 14.34c-2.564-3.703-6.797-5.885-11.523-5.885-4.58 0-8.835 2.249-11.592 6.071-5.902-.071-10.698 4.972-10.698 11.173 0 6.159 4.749 11.17 10.585 11.17 1.059 0 2.094-.163 3.092-.486 2.495 1.933 5.51 2.986 8.613 2.986 4.132 0 7.966-1.799 10.727-4.986.721.223 1.52.364 2.433.43 6 .419 8.714-4.8 8.714-9.627 0-7.338-5.362-10.378-10.351-10.846"/></g></svg>