<svg xmlns="http://www.w3.org/2000/svg" xmlns:xlink="http://www.w3.org/1999/xlink" width="63" height="93"><defs><path id="a" d="M.598.283h14v24h-14z"/></defs><g fill="none" fill-rule="evenodd"><path fill="#3F6651" stroke="#3F6651" stroke-width="2.5" d="M21.928 57.346a5.81 5.81 0 0 0-2.665 7.766l.114.234a5.775 5.775 0 0 0 4.049 3.142c-1.678 3.494.357 7.613 4.14 8.4a5.943 5.943 0 0 0 2.503 7.863l-5.801 2.839a10.111 10.111 0 0 1-7.79.48 10.138 10.138 0 0 1-5.848-5.18l-4.114-8.444a20.234 20.234 0 0 1-.34-17.009c.434-.988 3.993-12.429 4.006-12.477l3.917-14.671c.44-1.65 2.124-2.803 4.064-2.283a3.257 3.257 0 0 1 2.3 3.99c-.028.106.116-.868-2.516 17.437-.14.98.873 1.72 1.762 1.286l34.298-16.782a3.361 3.361 0 0 1 4.503 1.552l.08.165a3.38 3.38 0 0 1-1.548 4.512l-35.114 17.18M45.579 66.7l-15.302 7.487a3.459 3.459 0 0 1-4.625-1.594 3.468 3.468 0 0 1 1.194-4.407c.276-.183-.921.418 15.699-7.714a3.459 3.459 0 0 1 4.624 1.593 3.473 3.473 0 0 1-1.59 4.635M33.97 82.81c-2.707.907-5.295-1.704-4.365-4.415.25-.73.725-1.341 1.357-1.76.268-.177-.647.283 12.375-6.088a3.453 3.453 0 0 1 4.624 1.594 3.473 3.473 0 0 1-1.59 4.634c-12.978 6.35-12.087 5.929-12.4 6.034m8.031-32.535a3.323 3.323 0 0 1 4.451 1.534l.114.234a3.337 3.337 0 0 1-1.53 4.46c-20.353 9.959-19.06 9.335-19.293 9.422a3.33 3.33 0 0 1-4.151-1.663l-.114-.233a3.344 3.344 0 0 1 1.245-4.303c.208-.129-1.106.523 19.278-9.45M60.806 34.57l-.08-.165a5.824 5.824 0 0 0-7.8-2.688L20.72 47.474l2.145-14.915a5.701 5.701 0 0 0-.592-4.272c-.75-1.3-1.94-2.257-3.556-2.69a5.712 5.712 0 0 0-7 4.053l-3.91 14.646C6.444 48.667 4.192 55.81 3.918 56.444a22.776 22.776 0 0 0-1.917 9.413A22.623 22.623 0 0 0 4.3 75.53l4.114 8.444a12.61 12.61 0 0 0 3.058 4.002 12.613 12.613 0 0 0 4.204 2.431 12.597 12.597 0 0 0 9.674-.597l22.103-10.814a5.94 5.94 0 0 0 2.724-7.94 5.886 5.886 0 0 0-2.617-2.677 5.943 5.943 0 0 0 1.825-7.398 5.886 5.886 0 0 0-2.576-2.656 5.811 5.811 0 0 0 1.974-7.368l-.114-.233a5.759 5.759 0 0 0-2.403-2.536l11.857-5.802a5.803 5.803 0 0 0 2.957-3.351 5.818 5.818 0 0 0-.274-4.465M30.27 24.9c-.59 0-1.111-.466-1.21-1.124l-2.043-13.515c-.11-.732.342-1.422 1.012-1.543.669-.12 1.301.374 1.412 1.106l2.042 13.515c.11.732-.342 1.422-1.012 1.543a1.135 1.135 0 0 1-.201.018"/><g transform="translate(32.7 -2)"><mask id="b" fill="#fff"><use xlink:href="#a"/></mask><path fill="#3F6651" stroke="#3F6651" stroke-width="2.5" d="M5.355 20.563c-.132 0-.267-.02-.4-.06a1.313 1.313 0 0 1-.885-1.651L8.555 4.929a1.352 1.352 0 0 1 1.687-.866c.71.217 1.106.956.884 1.651L6.641 19.637c-.18.564-.712.926-1.286.926" mask="url(#b)"/></g><path fill="#3F6651" stroke="#3F6651" stroke-width="2.5" d="M40.985 27.6a1.4 1.4 0 0 1-.962-.379 1.324 1.324 0 0 1-.034-1.908l9.83-9.901a1.412 1.412 0 0 1 1.958-.033c.55.518.566 1.372.034 1.908l-9.83 9.901a1.4 1.4 0 0 1-.996.412"/></g></svg>