<svg xmlns="http://www.w3.org/2000/svg" xmlns:xlink="http://www.w3.org/1999/xlink" width="69" height="75"><defs><path id="a" d="M62.3 0c4.079 0 6.135 2.883 6.56 7.911l.025.311 2.346 27.351.009.211c0 4.504-2.194 6.073-6.246 6.154l-.256.003h-.665a8.102 8.102 0 0 1-2.235-.3v30.892a2.467 2.467 0 0 1-4.929.162l-.005-.162-.003-41.13-.001-.905-.065-14.41c-.008-3.485.01-5.604.069-7.147V7.895c0-.242.035-.476.1-.697l.055-.603.031-.293.087-.717C57.69 1.858 59.221 0 62.299 0zM15.365 1.974c6.23 0 11.605 9.753 11.605 16.954 0 5.736-4 11.758-9.137 13.275l-.001 40.33a2.467 2.467 0 0 1-4.929.162l-.005-.162v-40.33c-5.052-1.49-9.004-7.338-9.135-12.986l-.004-.289.003-.282C3.9 11.475 9.217 1.974 15.366 1.974zm33.684 20.14c0 4.08-2.978 7.478-6.855 7.933v42.486a2.467 2.467 0 0 1-4.928.162l-.006-.162V30.047c-3.794-.445-6.727-3.71-6.85-7.673l-.004-.26V2.961a2.467 2.467 0 0 1 4.929-.163l.005.163v11.842h1.92V2.96a2.467 2.467 0 0 1 4.93-.163l.005.163-.001 11.842h1.92V2.96a2.467 2.467 0 0 1 4.93-.163l.005.163v19.153zm13.283-17.18-.02.06a7.296 7.296 0 0 0-.215 1.031l-.071.538-.054.493a32.894 32.894 0 0 0-.134 2.025V34.15c0 2.067.659 2.805 2.073 2.855l.16.003 1.616-.001.2-.01c.38-.035.429-.16.427-.581l-.01-.63-2.34-27.18-.042-.534c-.213-2.371-.633-3.049-1.444-3.128l-.088-.007-.058-.001zM15.366 6.909c-2.713 0-6.672 7.181-6.672 12.02 0 4.15 3.47 8.704 6.672 8.704 3.202 0 6.671-4.554 6.671-8.704 0-4.839-3.958-12.02-6.671-12.02zm28.75 15.206v-2.377H35.34v2.377c0 1.587 1.106 2.857 2.485 3.03l.16.015.162.005h3.16c1.47 0 2.716-1.247 2.803-2.868l.005-.182z"/></defs><use xlink:href="#a" fill="#3f6652" transform="translate(-3)"/></svg>