<svg xmlns="http://www.w3.org/2000/svg" width="70" height="70"><g fill="none" fill-rule="evenodd" stroke="#3F6651"><path stroke-linecap="round" stroke-width="4.4" d="M19.692 17.368h30.066M23.5 23.921h22.45"/><path fill="#3F6651" stroke-width="1.1" d="M34.724 30.261c-6.86 0-12.422 5.562-12.422 12.421 0 6.862 5.563 12.423 12.422 12.423 6.861 0 12.423-5.56 12.423-12.423 0-6.86-5.562-12.42-12.423-12.42m0 2.75c5.334 0 9.673 4.338 9.673 9.67 0 5.334-4.339 9.673-9.673 9.673-5.333 0-9.672-4.339-9.672-9.673 0-5.332 4.339-9.67 9.672-9.67"/><path fill="#3F6651" stroke-width="1.1" d="M34.724 36.11a6.572 6.572 0 1 0 0 13.145 6.572 6.572 0 1 0 0-13.144m0 2.75a3.827 3.827 0 0 1 3.824 3.822 3.826 3.826 0 0 1-3.824 3.822 3.826 3.826 0 0 1-3.823-3.822 3.827 3.827 0 0 1 3.823-3.822"/><path stroke-linejoin="round" stroke-width="4.4" d="m36.8 53.976 6.165 13.081 1.686-6.88 6.439 2.868-6.831-14.257M32.65 53.976l-6.165 13.081-1.686-6.88-6.439 2.868 4.821-9.914"/><path stroke-width="4.4" d="M19.065 50.042H2.275V2.376h64.9v47.666H50.719"/><path stroke-width="4.4" d="M8.209 16.094v-8.02h8.018m36.993 0h8.02v8.02m.001 20.23v8.02h-8.02m-36.994-.001H8.209v-8.02"/></g></svg>