<svg xmlns="http://www.w3.org/2000/svg" viewBox="0 0 700 700"><path fill-rule="evenodd" d="M211.764 149.067c39.29-27.08 86.91-42.934 138.23-42.934 134.681 0 243.867 109.182 243.867 243.866 0 51.321-15.857 98.94-42.934 138.23zm-62.703 62.703c-27.078 39.289-42.934 86.909-42.934 138.23 0 134.68 109.183 243.866 243.866 243.866 51.322 0 98.942-15.857 138.23-42.934zM350 17.455C166.335 17.455 17.455 166.335 17.455 350c0 183.665 148.88 332.545 332.545 332.545 183.665 0 332.545-148.88 332.545-332.545 0-183.665-148.88-332.545-332.545-332.545z"/></svg>