<svg xmlns="http://www.w3.org/2000/svg" width="50" height="66"><g fill="none" fill-rule="evenodd" stroke="#3F6651" stroke-width="3.52"><path d="M24 15v-2.8C24 9.884 22.136 8 19.846 8H6"/><path d="M0 2h19.333C24.663 2 29 6.283 29 11.545V17m7 9h-6m16 12H28m18.607-.647c-.065-1.7-.895-3.952-2.786-5.647-1.77-1.588-8.357-7.059-8.357-7.059v-4.235c0-.78-.622-1.412-1.393-1.412H22.93c-.77 0-1.393.631-1.393 1.412v4.235s-6.558 5.47-8.357 7.059c-1.904 1.68-2.72 4.235-2.786 5.647 0 0-1.393 0-1.393 1.412V43h39v-4.235c0-1.412-1.393-1.412-1.393-1.412M21 26h2M10 38h6"/><path stroke-linecap="round" stroke-linejoin="round" d="M14 48v4m7 0v4m6-8v4m8 0v4m7-8v4m-28 8v4m13-4v4m15-4v4"/></g></svg>