<?xml version="1.0" encoding="UTF-8" standalone="no"?><svg xmlns="http://www.w3.org/2000/svg" width="700pt" height="700pt" viewBox="0 0 700 700"><g style="fill:#f06"><path d="M481.15 368.41V81.18h-262.3v287.23L350 468.46Z" style="fill:#f06" transform="translate(-125.11 -30.409) scale(1.3594)"/><path d="M571.09 28.074c-6.137 0-11.547 2.906-15.098 7.36h-411.99c-3.555-4.454-8.96-7.36-15.098-7.36-10.711 0-19.395 8.687-19.395 19.395 0 10.707 8.688 19.395 19.395 19.395 6.059 0 11.395-2.832 14.953-7.184h27.227v338.43l178.91 133.82 178.91-133.82V59.68h27.227c3.555 4.352 8.898 7.184 14.953 7.184 10.711 0 19.395-8.688 19.395-19.395-.004-10.703-8.68-19.387-19.391-19.387zm-66.309 352.64-154.79 119.7-154.79-119.7V59.674h309.57z" style="fill:#f06" transform="translate(-125.11 -30.409) scale(1.3594)"/></g></svg>