<svg width="13" height="15" viewBox="0 0 13 15" fill="none" xmlns="http://www.w3.org/2000/svg">
<path d="M6.51923 14.9995C6.01212 15.0145 5.59842 14.6712 5.54504 14.2383C5.50501 13.8951 5.50501 13.5443 5.51168 13.2011C5.55172 11.7011 4.87779 10.5369 4.10378 9.43248C3.76349 8.94741 3.24971 8.72354 2.68922 8.70862C2.20213 8.69369 1.70837 8.70116 1.22128 8.69369C1.00108 8.68623 0.774226 8.68623 0.560707 8.63399C0.27379 8.56683 0.00688154 8.19369 0.000209061 7.88027C-0.00646342 7.55192 0.147004 7.28327 0.400558 7.17133C1.06113 6.88775 1.72171 6.58179 2.40898 6.41015C3.83689 6.05195 4.57753 4.94749 5.03793 3.52961C5.13802 3.23111 5.07796 2.85798 5.07129 2.52217C5.05795 1.88039 5.00457 1.23863 5.02459 0.596851C5.03126 0.283425 5.2381 0.0520755 5.53837 0.0073003C5.83863 -0.0374749 6.07217 0.126701 6.17893 0.417739C6.35241 0.917729 6.53924 1.43264 6.62598 1.96248C7.07304 4.59675 9.22159 6.47732 11.6237 6.30569C11.8439 6.29076 12.0641 6.23106 12.2842 6.24598C12.5578 6.26091 12.8114 6.39522 12.9248 6.70118C13.0583 7.05192 13.0182 7.41014 12.7713 7.66386C12.5845 7.85789 12.3376 8.0146 12.0908 8.08922C10.2625 8.62652 9.04142 10.0593 7.91377 11.6041C7.62686 11.9996 7.56013 12.604 7.40666 13.119C7.27321 13.5891 7.2065 14.0891 7.01967 14.5294C6.93293 14.7533 6.64601 14.8876 6.51923 14.9995ZM9.07478 7.78325C8.47426 7.34296 7.94046 7.00716 7.46004 6.59672C6.9863 6.18628 6.55926 5.70122 6.09218 5.22362C5.51168 5.97733 4.97789 6.67135 4.39738 7.42506C5.24479 8.0146 5.72521 8.84294 6.18561 9.69367C6.31239 9.925 6.49921 10.1116 6.69939 10.3728C7.1331 9.87277 7.50008 9.44741 7.88041 9.02951C8.26074 8.61907 8.64774 8.231 9.07478 7.78325Z" fill="currentColor"></path>
</svg>