<svg xmlns="http://www.w3.org/2000/svg" width="66" height="67"><g fill="none" fill-rule="evenodd" stroke="#3F6651" stroke-linecap="round" stroke-linejoin="round" stroke-width="4.2"><path d="m23.487 56.072-.092-.092 32.26-32.263 6.538 6.538.935-27.118-27.115.935 6.537 6.54-32.263 32.261-.093-.094 32.168-32.167-6.66-6.66.153-.006L63.267 3l-.003.073-.948 27.491-.107-.109-6.554-6.552zm39.158-17.178-13.7.502 3.52 3.52-15.526 15.525 6.16 6.158 15.524-15.524 3.52 3.52z"/><path d="m28.706 4.955-13.702.502 3.521 3.52L3 24.5l6.159 6.16 15.525-15.526 3.52 3.52zM4.956 49.54l-.095-.094 2.666-2.667.094.094zM3.62 58.872l-.093-.093 14.665-14.667.095.094zm10.666-2.666-.093-.093 5.332-5.334.095.093z"/></g></svg>