<svg xmlns="http://www.w3.org/2000/svg" viewBox="0 0 700 700"><path d="m281.89 442.548-26.533 28.495v-83.6c4.873-13.665 12.431-24.79 22.754-33.805.364 27.552 1.525 57.28 3.56 88.758zM372.83 377.56v101.918H327.18V377.56c0-12.576 10.25-22.825 22.825-22.825 12.576 0 22.825 10.25 22.825 22.825z"/><path d="M349.999 40.767c-41.144 62.445-61.206 158.54-61.206 293.39 0 2.692 0 5.524.073 8.288.145 29.004 1.233 60.628 3.342 94.135h24.06v-59.025c0-18.61 15.121-33.731 33.731-33.731s33.731 15.122 33.731 33.731v59.025h24.06c2.109-33.512 3.197-65.13 3.343-93.995.874-139.203-19.115-238.065-61.133-301.822zm0 280.234c-21.446 0-38.89-17.376-38.89-38.817 0-21.447 17.449-38.89 38.89-38.89 21.446 0 38.89 17.448 38.89 38.89 0 21.44-17.444 38.817-38.89 38.817zM444.646 387.446v83.6l-26.533-28.494.219-.146c2.035-31.477 3.196-61.206 3.56-88.758 10.323 9.01 17.886 20.13 22.754 33.8z"/><path d="M377.979 282.18c0 15.414-12.576 27.916-27.985 27.916-15.414 0-27.985-12.504-27.985-27.916 0-15.414 12.576-27.985 27.985-27.985 15.414 0 27.985 12.576 27.985 27.985zM142.91 583.753l-7.524-7.889c15.952-15.223 24.74-35.752 24.74-57.796 0-44.044-35.834-79.883-79.878-79.883-19.911 0-38.988 7.369-53.71 20.747l-7.325-8.068c16.734-15.205 38.404-23.58 61.036-23.58 50.053 0 90.784 40.727 90.784 90.785 0 25.06-9.987 48.386-28.12 65.684z"/><path d="m214.962 619.58-10.818-1.326c.112-.938.097-1.817.097-2.754 0-27.796-19.736-52.181-46.929-57.986l2.273-10.662c32.197 6.868 55.562 35.737 55.562 68.647 0 1.395-.01 2.692-.184 4.08z"/><path d="m198.82 630.063-5.848-9.205c21.874-13.888 51.248-14.214 73.724-.568l-5.664 9.321c-18.993-11.541-43.777-11.25-62.211.452zM557.087 583.753c-18.128-17.298-28.12-40.629-28.12-65.684 0-50.058 40.726-90.784 90.784-90.784 22.632 0 44.307 8.374 61.036 23.579l-7.325 8.073c-14.724-13.378-33.8-20.747-53.71-20.747-44.044 0-79.878 35.834-79.878 79.883 0 22.044 8.787 42.572 24.74 57.796z"/><path d="M485.036 619.58c-.17-1.39-.184-2.686-.184-4.08 0-32.906 23.37-61.78 55.561-68.648l2.274 10.662c-27.198 5.805-46.93 30.19-46.93 57.986 0 .937-.014 1.817.098 2.754z"/><path d="M501.177 630.063c-18.434-11.707-43.228-11.993-62.206-.457l-5.664-9.321c22.476-13.646 51.845-13.32 73.724.568zM249.88 653.044l44.244-150.258 10.463 3.08-44.243 150.258z"/><path d="m395.413 505.87 10.464-3.08 42.402 144.053-10.463 3.08zM344.552 536.97h10.906v97.133h-10.906ZM98.217 659.237l-10.633-2.42c2.2-9.656 1.365-19.619-2.42-28.81-8.228-19.989-28.95-32.046-50.338-29.282l-1.39-10.818c26.266-3.385 51.7 11.41 61.814 35.951 4.634 11.275 5.664 23.51 2.968 35.378zM580.59 648.157l-10.477-3.036c7.233-24.958 30.452-42.398 56.474-42.398 7.432 0 14.69 1.37 21.544 4.076l-3.989 10.142c-5.586-2.2-11.493-3.313-17.555-3.313-21.194 0-40.11 14.2-45.996 34.529z"/></svg>