<?xml version="1.0" encoding="UTF-8" standalone="no"?><svg xmlns="http://www.w3.org/2000/svg" width="700pt" height="700pt" viewBox="0 0 700 700"><g fill-rule="evenodd" style="fill:#f06"><path d="M261.82 139.71c12.598 3.438 25.195 8.016 35.5 14.887l25.195-25.195c6.871-6.871 17.18-6.871 24.051 0l28.629 28.629c6.871 6.871 6.871 17.18 0 24.051L350 207.277c6.871 10.309 11.453 22.902 14.887 35.5h35.5c9.16 0 17.18 8.016 17.18 17.18v40.082c0 9.16-8.016 17.18-17.18 17.18h-35.5c-3.438 12.598-8.016 24.051-14.887 35.5l25.195 25.195c6.871 6.871 6.871 17.18 0 24.051l-28.629 28.629c-6.871 6.871-17.18 6.871-24.051 0l-25.195-25.195c-10.309 6.871-22.902 11.453-35.5 14.887v35.5c0 9.16-8.016 17.18-17.18 17.18h-40.082c-9.16 0-17.18-8.016-17.18-17.18v-35.5c-12.598-3.438-25.195-8.016-35.5-14.887l-25.195 25.195c-6.871 6.871-17.18 6.871-24.051 0l-28.629-28.629c-6.871-6.871-6.871-17.18 0-24.051l25.195-25.195c-6.871-11.453-11.453-22.902-14.887-35.5h-35.5c-9.16 0-17.18-8.016-17.18-17.18v-40.082c0-9.16 8.016-17.18 17.18-17.18h35.5c3.438-12.598 8.016-25.195 14.887-35.5l-25.195-25.195c-6.871-6.871-6.871-17.18 0-24.051l28.629-28.629c6.871-6.871 17.18-6.871 24.051 0l25.195 24.051c10.309-5.727 22.902-10.309 35.5-13.742v-35.5c0-9.16 8.016-17.18 17.18-17.18h40.082c9.16 0 17.18 8.016 17.18 17.18zm-37.793 54.969c48.098 0 85.891 37.793 85.891 84.746 0 48.098-37.793 85.891-85.891 85.891-46.953 0-84.746-37.793-84.746-85.891 0-46.953 37.793-84.746 84.746-84.746zM556.14 37.793c9.16 2.29 18.324 5.727 25.195 10.309l18.324-17.18c4.582-5.727 12.598-5.727 18.324 0l19.469 19.469c5.727 5.727 5.727 13.742 0 18.324l-17.18 18.324c4.582 6.871 8.016 16.031 10.309 25.195h25.195c6.871 0 12.598 5.727 12.598 12.598v28.629c0 6.871-5.727 12.598-12.598 12.598h-25.195c-2.29 9.16-5.727 17.18-10.309 25.195l17.18 18.324c5.727 4.582 5.727 12.598 0 17.18l-19.469 20.613c-5.727 4.582-13.742 4.582-18.324 0l-18.324-17.18c-6.871 4.582-16.031 8.016-25.195 10.309v25.195c0 6.871-5.727 12.598-12.598 12.598h-28.629c-6.871 0-12.598-5.727-12.598-12.598V240.5c-9.16-2.29-17.18-5.727-25.195-10.309l-18.324 17.18c-4.582 4.582-12.598 4.582-17.18 0l-20.613-20.613c-4.582-4.582-4.582-12.598 0-17.18l17.18-18.324c-4.582-8.016-8.016-16.031-10.309-25.195h-25.195c-6.871 0-12.598-5.727-12.598-12.598v-28.629c0-6.871 5.727-12.598 12.598-12.598h25.195c2.29-9.16 5.727-18.324 10.309-25.195l-17.18-18.324c-4.582-4.582-4.582-12.598 0-18.324l20.613-19.469c4.582-5.727 12.598-5.727 17.18 0l18.324 17.18c8.016-4.582 16.031-8.016 25.195-10.309V12.598C502.315 5.727 508.042 0 514.913 0h28.629c6.871 0 12.598 5.727 12.598 12.598zM529.8 76.731c33.211 0 61.84 28.629 61.84 61.84 0 34.355-28.629 61.84-61.84 61.84-34.355 0-61.84-27.484-61.84-61.84 0-33.211 27.484-61.84 61.84-61.84zM550.41 327.53c9.16 2.29 17.18 5.727 25.195 10.309l17.18-17.18c4.582-4.582 12.598-4.582 17.18 0l19.469 19.469c4.582 4.582 4.582 12.598 0 17.18l-17.18 17.18c4.582 8.016 8.016 16.031 10.309 25.195h24.051c6.871 0 12.598 4.582 12.598 11.453v28.629c0 5.727-5.727 11.453-12.598 11.453h-24.051c-2.29 9.16-5.727 17.18-10.309 25.195l17.18 17.18c4.582 4.582 4.582 12.598 0 17.18l-19.469 19.469c-4.582 4.582-12.598 4.582-17.18 0l-17.18-17.18c-8.016 4.582-16.031 8.016-25.195 10.309v24.051c0 6.871-4.582 12.598-11.453 12.598h-28.629c-5.727 0-11.453-5.727-11.453-12.598v-24.051c-9.16-2.29-17.18-5.727-25.195-10.309l-17.18 17.18c-4.582 4.582-12.598 4.582-17.18 0l-19.469-19.469c-4.582-4.582-4.582-12.598 0-17.18l17.18-17.18c-4.582-8.016-8.016-16.031-10.309-25.195h-24.051c-6.871 0-12.598-5.727-12.598-11.453v-28.629c0-6.871 5.727-11.453 12.598-11.453h24.051c2.29-9.16 5.727-17.18 10.309-25.195l-17.18-17.18c-4.582-4.582-4.582-12.598 0-17.18l19.469-19.469c4.582-4.582 12.598-4.582 17.18 0l17.18 17.18c8.016-4.582 16.031-8.016 25.195-10.309v-24.051c0-6.871 5.727-12.598 11.453-12.598h28.629c6.871 0 11.453 5.727 11.453 12.598zm-25.195 37.793c32.066 0 59.551 27.484 59.551 59.551 0 33.211-27.484 60.695-59.551 60.695-33.211 0-60.695-27.484-60.695-60.695 0-32.066 27.484-59.551 60.695-59.551z" style="fill:#f06" transform="translate(-32.005 49.967) scale(1.08222)"/></g></svg>