<svg xmlns="http://www.w3.org/2000/svg" width="87" height="87"><g fill="none" fill-rule="evenodd" stroke="#3F6651" stroke-linejoin="round" stroke-width="4.8"><path d="M49.403 66 43.5 71.536l-5.897-5.53C31.007 67.396 26 71.286 26 78.1V84h35v-5.9c0-6.86-5.005-10.725-11.597-12.1zm-6.405-26C37.477 40 33 44.478 33 50.001 33 55.522 37.477 60 42.998 60 48.519 60 53 55.522 53 50.001 53 44.478 48.52 40 42.998 40zm1.507-27.646a4.587 4.587 0 0 0-3.958 2.303 4.67 4.67 0 0 0-.475 3.521 4.61 4.61 0 0 0 2.117 2.832c.7.416 1.499.637 2.305.637a4.584 4.584 0 0 0 3.956-2.303 4.679 4.679 0 0 0 .479-3.522 4.615 4.615 0 0 0-2.119-2.833 4.534 4.534 0 0 0-2.305-.635zM49.295 31c-.365 0-.704-.2-.886-.525l-1.604-2.222a11.195 11.195 0 0 1-4.737-.024l-1.657 2.253c-.149.266-.487.461-.85.461a.998.998 0 0 1-.512-.139l-3.723-2.207a1.047 1.047 0 0 1-.368-1.42l1.094-2.517a11.582 11.582 0 0 1-2.337-4.145l-2.765-.326c-.213 0-.468-.11-.658-.305-.192-.2-.296-.46-.292-.738l.009-4.365a1.03 1.03 0 0 1 1.021-1.035l2.704-.308c.257-.8.585-1.554.981-2.24.392-.683.87-1.334 1.422-1.946l-1.094-2.59c-.251-.444-.08-1.078.408-1.361l3.746-2.166A.993.993 0 0 1 39.701 3c.366 0 .707.2.89.524l1.602 2.223a11.179 11.179 0 0 1 4.738.024l1.66-2.254c.144-.265.483-.463.845-.463.182 0 .359.049.516.14l3.721 2.208c.238.141.407.367.474.636.07.267.032.547-.105.784L52.947 9.34a11.565 11.565 0 0 1 2.338 4.145l2.765.327c.211 0 .466.107.655.304.194.198.297.459.295.737l-.008 4.367c0 .57-.458 1.034-1.023 1.034l-2.704.308c-.257.8-.585 1.556-.981 2.242-.39.678-.87 1.331-1.423 1.943l1.092 2.593c.11.19.144.473.07.741a1.02 1.02 0 0 1-.48.62L49.8 30.864c-.157.09-.329.135-.505.135z"/><path d="M28 70.8c-1.45-.829-3.146-1.425-4.988-1.8l-5.048 4.614-5.042-4.607C7.282 70.165 3 73.405 3 79.082V84h22.099m-5.6-37A8.5 8.5 0 0 0 11 55.5a8.5 8.5 0 1 0 8.498-8.5zm42.43 37H84v-4.918c0-5.717-4.314-8.934-9.994-10.082l-5.086 4.612-5.083-4.605c-1.776.36-3.42.923-4.837 1.704M69.5 47a8.501 8.501 0 0 0-8.5 8.5 8.5 8.5 0 0 0 8.5 8.5 8.5 8.5 0 0 0 0-17z"/></g></svg>