<svg xmlns="http://www.w3.org/2000/svg" xmlns:xlink="http://www.w3.org/1999/xlink" width="75" height="75"><defs><path id="a" d="M27.426 31.839a2.5 2.5 0 1 1 0 5c-8.958 0-16.263 7.397-16.263 16.5s7.305 16.5 16.263 16.5c8.96 0 16.264-7.397 16.264-16.5a2.5 2.5 0 1 1 5 0c0 11.85-9.53 21.5-21.264 21.5s-21.263-9.65-21.263-21.5 9.529-21.5 21.263-21.5zm6.818-11a2.5 2.5 0 0 1 2.494 2.336l.006.164-.001 5.5h11.08a2.5 2.5 0 0 1 .165 4.995l-.164.005H36.743v10.292l17.406.001a2.5 2.5 0 0 1 2.227 1.363l.074.16 7.088 16.684h3.56a2.5 2.5 0 0 1 2.496 2.336l.005.164a2.5 2.5 0 0 1-2.336 2.495l-.164.005h-5.214a2.5 2.5 0 0 1-2.227-1.363l-.074-.16-7.089-16.685-18.251.001a2.5 2.5 0 0 1-2.495-2.336l-.005-.164V23.339a2.5 2.5 0 0 1 2.5-2.5zm.008-21c5.391 0 9.78 4.37 9.78 9.75 0 5.379-4.389 9.75-9.78 9.75-5.39 0-9.777-4.37-9.777-9.75s4.387-9.75 9.777-9.75zm0 5c-2.633 0-4.777 2.136-4.777 4.75s2.144 4.75 4.777 4.75c2.634 0 4.78-2.137 4.78-4.75s-2.146-4.75-4.78-4.75z"/></defs><g fill="none" fill-rule="evenodd"><mask id="b" fill="#fff"><use xlink:href="#a"/></mask><use xlink:href="#a" fill="#000" fill-rule="nonzero"/><g fill="#3F6651" mask="url(#b)"><path d="M0 0h75v75H0z"/></g></g></svg>