<svg xmlns="http://www.w3.org/2000/svg" xmlns:xlink="http://www.w3.org/1999/xlink" width="77" height="69"><defs><path id="a" d="M0 0h77v69H0z"/></defs><g fill="none" fill-rule="evenodd"><mask id="b" fill="#fff"><use xlink:href="#a"/></mask><path fill="#3F6651" d="M36.282 3.932c.324-.198 1.241-.4 2.216-.4.977 0 1.894.202 2.212.396 1.398.854.95 3.435.694 4.504-.135.56-.698 2.405-2.296 2.7-.13.014-.459.051-.596.055-.157-.004-.49-.041-.622-.055-1.598-.295-2.16-2.14-2.298-2.7-.257-1.07-.706-3.647.69-4.5zm1.061 10.692.092.012c.279.031.789.084 1.063.084.277 0 .786-.053 1.067-.084l.094-.012c2.545-.428 4.486-2.433 5.192-5.368.94-3.904.126-6.868-2.298-8.345C41.157.064 39.098 0 38.498 0c-.596 0-2.657.064-4.061.914-2.42 1.478-3.233 4.442-2.292 8.342.708 2.935 2.65 4.94 5.198 5.368zm29.555 30.354c-2.585 0-5.6-.764-6.367-4.119h12.737c-.766 3.355-3.782 4.12-6.37 4.12zm.001-19.165 5.509 11.513H61.389l5.51-11.513zm-19.71-2.077a1.765 1.765 0 0 0-1.857 1.725l-.804 37.707a2.334 2.334 0 0 1-.724 1.644c-.455.434-1.067.684-1.678.65-.751-.015-1.426-.412-1.853-1.033v-19.76h-3.546v19.803c-.45.64-1.18 1.028-1.955.99a2.347 2.347 0 0 1-2.304-2.294l-.804-37.724a1.752 1.752 0 0 0-.64-1.323 1.766 1.766 0 0 0-1.132-.407h-.051c-.745-.006-10.262-.336-16.532-.557a1.35 1.35 0 0 1-.936-.43 1.335 1.335 0 0 1-.357-.963c.028-.694.6-1.26 1.296-1.286l15.864-.562c.116-.002 1.88-.002 4.283-.002l3.902 3.259c.659.551 1.617.55 2.276 0l3.902-3.26c2.4 0 4.165.007 4.236 0l15.909.565c.74.026 1.321.651 1.298 1.388a1.352 1.352 0 0 1-1.289 1.29c-6.22.234-15.679.58-16.504.58zM15.61 37.326H4.59l5.508-11.515 5.512 11.515zm-5.512 7.652c-2.585 0-5.603-.764-6.37-4.119h12.739c-.767 3.355-3.783 4.12-6.37 4.12zm66.695-6.69-8.343-17.315a4.898 4.898 0 0 0-4.64-4.026l-15.92-.564c-.022-.002-.087-.004-4.997-.004-.417 0-.82.146-1.139.414l-3.257 2.722-3.257-2.724a1.78 1.78 0 0 0-1.14-.412c-4.915 0-4.972.002-5.007.004l-15.915.564c-2.316.09-4.222 1.814-4.616 4.032L.203 38.288a1.745 1.745 0 0 0-.203.805c0 5.811 3.87 9.418 10.099 9.418 6.23 0 10.098-3.607 10.098-9.418 0-.276-.069-.534-.182-.766l-5.548-11.594c7.885.28 11.76.41 13.69.467l.768 36.047a5.885 5.885 0 0 0 5.77 5.75c1.401.043 2.74-.449 3.801-1.297a5.886 5.886 0 0 0 3.553 1.297h.126c3.196 0 5.831-2.557 5.898-5.752l.767-36.021c1.931-.057 5.806-.194 13.69-.489l-5.549 11.596c-.111.234-.18.488-.18.762 0 5.811 3.87 9.418 10.097 9.418 6.231 0 10.102-3.607 10.102-9.418 0-.291-.078-.563-.206-.805z" mask="url(#b)"/></g></svg>