<svg xmlns="http://www.w3.org/2000/svg" xmlns:xlink="http://www.w3.org/1999/xlink" width="87" height="54"><defs><path id="a" d="M0 .107h103.4v67.1H0z"/></defs><g fill="none" fill-rule="evenodd"><path fill="#3F6651" stroke="#3F6651" stroke-width="2.2" d="M21 44c-6.065 0-11-5.159-11-11.5S14.935 21 21 21c6.066 0 11 5.159 11 11.5S27.066 44 21 44m-.5-24C13.608 20 8 25.832 8 33s5.608 13 12.5 13C27.393 46 33 40.168 33 33s-5.607-13-12.5-13m46 24C60.71 44 56 38.841 56 32.5S60.71 21 66.5 21 77 26.159 77 32.5 72.29 44 66.5 44m.5-24c-6.617 0-12 5.832-12 13s5.383 13 12 13 12-5.832 12-13-5.383-13-12-13m-23.95 3.065c-1 0-1.812-.859-1.812-1.915s.813-1.915 1.812-1.915c1 0 1.812.86 1.812 1.915 0 1.056-.813 1.915-1.812 1.915m0-5.765a3.854 3.854 0 0 0-3.85 3.85A3.854 3.854 0 0 0 43.05 25a3.854 3.854 0 0 0 3.85-3.85 3.854 3.854 0 0 0-3.85-3.85"/><g transform="translate(-7 -8)"><mask id="b" fill="#fff"><use xlink:href="#a"/></mask><path fill="#406752" stroke="#3F6651" stroke-width="2.2" d="M73.833 58.516c-9.158 0-16.608-8.123-16.608-18.107s7.45-18.107 16.608-18.107c9.27 0 16.607 8.268 16.607 18.107 0 9.984-7.45 18.107-16.607 18.107m-46.466 0c-9.158 0-16.608-8.123-16.608-18.107 0-9.771 7.304-18.107 16.608-18.107 9.158 0 16.608 8.123 16.608 18.107s-7.45 18.107-16.608 18.107m27.922-19.1h-9.378c-.201-4.457-1.75-8.538-4.217-11.773 2.301-.4 4.473-1.506 6.255-3.221 1.52-1.463 3.785-1.46 5.302 0 1.782 1.715 3.953 2.822 6.255 3.221-2.466 3.235-4.016 7.316-4.217 11.774M41.531 20.484a9.304 9.304 0 0 1-1.758.17h-.049c-.54 0-.98.444-.98.992s.44.993.98.993h.049c3 0 5.904-1.205 8.176-3.391 1.52-1.463 3.785-1.46 5.302 0 2.272 2.186 5.176 3.39 8.176 3.39.541 0 .98-.444.98-.992s-.439-.992-.98-.992c-.592 0-1.18-.059-1.758-.17.115-4.704 3.643-8.493 7.966-8.493 1.909 0 4.07.858 5.515 2.188l6.666 7.215a17.217 17.217 0 0 0-5.983-1.076c-4.932 0-9.417 2.095-12.745 5.501-2.376-.087-4.668-1.085-6.487-2.836-2.278-2.191-5.73-2.187-8.002 0-1.82 1.751-4.11 2.75-6.486 2.836-3.329-3.406-7.814-5.501-12.746-5.501-2.093 0-4.104.382-5.983 1.076l6.666-7.215c1.445-1.33 3.607-2.188 5.515-2.188 4.323 0 7.851 3.79 7.966 8.493m33.017-7.696c-.008-.01-.019-.016-.028-.025-.01-.01-.016-.02-.026-.03-1.786-1.656-4.479-2.726-6.859-2.726-5.218 0-9.507 4.365-9.898 9.888a10.365 10.365 0 0 1-3.136-2.086c-2.278-2.191-5.73-2.187-8.002 0a10.365 10.365 0 0 1-3.136 2.086c-.392-5.523-4.68-9.888-9.898-9.888-2.38 0-5.072 1.07-6.86 2.727l-.025.029c-.009.009-.02.016-.028.025l-12.231 13.24c-3.785 3.99-5.621 9.224-5.621 14.38 0 11.08 8.33 20.092 18.567 20.092 9.93 0 18.064-8.48 18.544-19.099h9.378C55.769 52.02 63.902 60.5 73.833 60.5 84.07 60.5 92.4 51.487 92.4 40.409c0-5.444-2.02-10.585-5.62-14.381l-12.232-13.24z" mask="url(#b)"/></g></g></svg>