<svg xmlns="http://www.w3.org/2000/svg" xmlns:xlink="http://www.w3.org/1999/xlink" width="70" height="70"><defs><path id="a" d="M.002-.002h88.2v78.3H.002z"/></defs><g fill="none" fill-rule="evenodd"><g transform="translate(-8 -1.459)"><mask id="b" fill="#fff"><use xlink:href="#a"/></mask><path fill="#3F6651" stroke="#3F6651" stroke-width="1.08" d="m42.055 18.063-5.61 15.428c-.083.224-.21.427-.378.593L12.712 57.438c-.63.632-.63 1.66 0 2.293l6.759 6.757c.628.63 1.658.631 2.29 0l23.356-23.354c.167-.169.37-.297.591-.378l15.429-5.611-19.082-19.082zM20.615 70.2a4.842 4.842 0 0 1-3.435-1.423l-6.759-6.757a4.865 4.865 0 0 1 0-6.873l23.101-23.102 6.357-17.481c.19-.52.63-.909 1.172-1.027a1.611 1.611 0 0 1 1.496.436l22.68 22.68a1.62 1.62 0 0 1-.592 2.668l-17.482 6.355-23.101 23.101a4.845 4.845 0 0 1-3.436 1.423z" mask="url(#b)"/></g><path fill="#3F6651" stroke="#3E6650" stroke-width="1.08" d="M43.123 12.04a1.617 1.617 0 0 1-1.59-1.938l1.621-8.1a1.618 1.618 0 0 1 1.905-1.27 1.617 1.617 0 0 1 1.27 1.905l-1.62 8.1a1.619 1.619 0 0 1-1.586 1.303m16.197 16.2a1.619 1.619 0 0 1-.316-3.208l8.1-1.62a1.615 1.615 0 0 1 1.905 1.27 1.617 1.617 0 0 1-1.27 1.905l-8.1 1.62a1.535 1.535 0 0 1-.319.033m-6.478-9.72a1.618 1.618 0 0 1-1.145-2.765l8.1-8.1a1.618 1.618 0 0 1 2.29 0 1.618 1.618 0 0 1 0 2.29l-8.1 8.1c-.316.316-.73.475-1.145.475"/><path fill="#3F6651" d="M13.962 57.4a1.618 1.618 0 0 1-1.145-2.765l4.86-4.86a1.618 1.618 0 0 1 2.29 0 1.618 1.618 0 0 1 0 2.29l-4.86 4.86c-.316.316-.73.475-1.145.475m24.3-12.96c-.415 0-.83-.16-1.146-.475l-6.48-6.48a1.618 1.618 0 0 1 0-2.29 1.618 1.618 0 0 1 2.291 0l6.48 6.48a1.618 1.618 0 0 1-1.145 2.765"/></g></svg>