<svg xmlns="http://www.w3.org/2000/svg" xmlns:xlink="http://www.w3.org/1999/xlink" width="80" height="56"><defs><path id="a" d="M.04.028h75.6v21.464H.04z"/><path id="c" d="M.053.126h15.3v23.606H.053z"/></defs><g fill="none" fill-rule="evenodd"><path fill="#3F6651" stroke="#3F6651" stroke-width=".9" d="M56.13 27.36H21.38c-.65 0-1.178-.53-1.178-1.185 0-.654.527-1.185 1.178-1.185h34.75c3.24 0 5.875-2.651 5.875-5.91 0-3.259-2.636-5.91-5.875-5.91H9.23c-3.24 0-5.875 2.651-5.875 5.91 0 3.259 2.636 5.91 5.875 5.91h.764c.65 0 1.178.53 1.178 1.185s-.527 1.185-1.178 1.185H9.23C4.692 27.36 1 23.646 1 19.08c0-4.566 3.692-8.28 8.23-8.28h46.9c4.538 0 8.23 3.714 8.23 8.28 0 4.566-3.692 8.28-8.23 8.28"/><path fill="#3F6651" stroke="#3F6651" stroke-width=".9" d="M9.416 41.04C4.776 41.04 1 37.326 1 32.76c0-4.566 3.776-8.28 8.416-8.28h4.78c.665 0 1.204.53 1.204 1.185 0 .654-.54 1.185-1.204 1.185h-4.78c-3.312 0-6.007 2.651-6.007 5.91s2.695 5.91 6.007 5.91c.666 0 1.205.53 1.205 1.185s-.54 1.185-1.205 1.185m46.789 0c-.645 0-1.167-.53-1.167-1.185 0-.654.522-1.185 1.167-1.185 3.21 0 5.82-2.651 5.82-5.91s-2.61-5.91-5.82-5.91h-.758c-.645 0-1.167-.53-1.167-1.185s.522-1.185 1.167-1.185h.758c4.496 0 8.155 3.714 8.155 8.28 0 4.566-3.659 8.28-8.155 8.28"/><path fill="#3F6651" stroke="#3F6651" stroke-width=".9" d="M56.13 55.44H9.23C4.692 55.44 1 51.726 1 47.16c0-4.566 3.692-8.28 8.23-8.28h37.692c.65 0 1.178.53 1.178 1.185 0 .654-.527 1.185-1.178 1.185H9.23c-3.24 0-5.875 2.651-5.875 5.91 0 3.259 2.636 5.91 5.875 5.91h46.9c3.24 0 5.875-2.651 5.875-5.91 0-3.259-2.636-5.91-5.875-5.91h-.764c-.651 0-1.178-.53-1.178-1.185s.527-1.185 1.178-1.185h.764c4.538 0 8.23 3.714 8.23 8.28 0 4.566-3.692 8.28-8.23 8.28m-2.315-21.6h-41.55c-.655 0-1.185-.483-1.185-1.08s.53-1.08 1.185-1.08h41.55c.654 0 1.185.483 1.185 1.08s-.53 1.08-1.185 1.08"/><path fill="#3F6651" stroke="#3F6651" stroke-width=".9" d="M17.046 48.24h-4.732c-.681 0-1.234-.483-1.234-1.08s.553-1.08 1.234-1.08h4.732c.682 0 1.234.483 1.234 1.08s-.552 1.08-1.234 1.08m37.492 0H21.622c-.653 0-1.182-.483-1.182-1.08s.529-1.08 1.182-1.08h32.916c.653 0 1.182.483 1.182 1.08s-.529 1.08-1.182 1.08m-7.912-28.08H12.254c-.649 0-1.174-.483-1.174-1.08S11.605 18 12.254 18h34.372c.649 0 1.174.483 1.174 1.08s-.525 1.08-1.174 1.08m7.12 0h-1.811c-.693 0-1.255-.483-1.255-1.08S51.242 18 51.935 18h1.81c.693 0 1.255.483 1.255 1.08s-.562 1.08-1.255 1.08"/><g transform="translate(5.32)"><mask id="b" fill="#fff"><use xlink:href="#a"/></mask><path fill="#3F6651" stroke="#3F6651" stroke-width=".9" d="M61.45 21.492a1.19 1.19 0 0 1-.922-.434 1.165 1.165 0 0 1 .174-1.651l8.045-6.452a5.905 5.905 0 0 0 2.228-4.625c0-3.283-2.7-5.954-6.02-5.954H27.962c-3.25 0-6.493.78-9.38 2.256L1.773 13.23a1.194 1.194 0 0 1-1.6-.503 1.168 1.168 0 0 1 .51-1.582l16.811-8.597A23.1 23.1 0 0 1 27.963.028h36.991c4.63 0 8.396 3.724 8.396 8.302a8.233 8.233 0 0 1-3.108 6.448l-8.044 6.452a1.19 1.19 0 0 1-.747.262" mask="url(#b)"/></g><g transform="translate(65.8 12.96)"><mask id="d" fill="#fff"><use xlink:href="#c"/></mask><path fill="#3F6651" stroke="#3F6651" stroke-width=".9" d="M1.21 23.732c-.325 0-.648-.14-.877-.412a1.21 1.21 0 0 1 .122-1.676l7.605-6.725a7.457 7.457 0 0 0 2.497-5.592V7.625c0-2.06-.847-4.041-2.326-5.436A1.21 1.21 0 0 1 8.162.511 1.136 1.136 0 0 1 9.797.439c1.954 1.844 3.075 4.463 3.075 7.186v1.702c0 2.843-1.203 5.537-3.301 7.392l-7.606 6.725a1.136 1.136 0 0 1-.755.288" mask="url(#d)"/></g><path fill="#3F6651" stroke="#3F6651" stroke-width=".9" d="M62.649 52.56c-.338 0-.673-.147-.904-.43a1.186 1.186 0 0 1 .162-1.66l11.796-9.773a7.516 7.516 0 0 0 2.72-5.807 7.473 7.473 0 0 0-2.361-5.49 1.187 1.187 0 0 1-.056-1.666 1.16 1.16 0 0 1 1.651-.056 9.95 9.95 0 0 1 3.103 7.212 9.872 9.872 0 0 1-3.575 7.629L63.39 52.292c-.217.18-.48.268-.74.268"/></g></svg>