<svg xmlns="http://www.w3.org/2000/svg" viewBox="0 0 700 700"><path d="M616.752 83.242H83.242v533.51h533.51zM597.456 597.46H102.533V102.536h494.923z"/><path d="M685.538 155.805V41.385a26.926 26.926 0 0 0-26.926-26.925h-114.42a39.587 39.587 0 0 1-11.628 27.94A39.579 39.579 0 0 1 504.6 53.969a39.51 39.51 0 0 1-39.512-39.508H389.59a39.59 39.59 0 0 1-39.593 39.508 39.5 39.5 0 0 1-27.936-11.572A39.503 39.503 0 0 1 310.49 14.46h-75.496a39.512 39.512 0 0 1-39.513 39.508 39.588 39.588 0 0 1-39.677-39.509H41.383a26.926 26.926 0 0 0-26.925 26.926v114.42a39.512 39.512 0 0 1 39.508 39.513 39.579 39.579 0 0 1-11.568 27.964 39.589 39.589 0 0 1-27.94 11.628v75.497A39.505 39.505 0 0 1 54.05 350a39.511 39.511 0 0 1-11.6 27.97 39.511 39.511 0 0 1-27.992 11.538v75.497a39.587 39.587 0 0 1 27.941 11.628 39.582 39.582 0 0 1 11.567 27.97 39.498 39.498 0 0 1-11.539 27.987 39.514 39.514 0 0 1-27.97 11.605V658.53a27.014 27.014 0 0 0 27.01 27.01h114.336a39.606 39.606 0 0 1 10.921-29.167 39.595 39.595 0 0 1 68.186 29.168h75.497a39.583 39.583 0 0 1 39.551-41.414 39.594 39.594 0 0 1 28.635 12.246 39.58 39.58 0 0 1 10.916 29.168h75.497a39.549 39.549 0 0 1 19.778-34.252 39.534 39.534 0 0 1 39.55 0 39.55 39.55 0 0 1 19.778 34.252h114.505a26.926 26.926 0 0 0 26.926-26.926v-114.42a39.549 39.549 0 0 1-34.252-19.777 39.534 39.534 0 0 1 0-39.551 39.55 39.55 0 0 1 34.252-19.778v-75.497a39.544 39.544 0 0 1-34.252-19.772 39.543 39.543 0 0 1 0-39.556 39.545 39.545 0 0 1 34.252-19.773v-75.497a39.549 39.549 0 0 1-34.252-19.777 39.534 39.534 0 0 1 0-39.551 39.55 39.55 0 0 1 34.252-19.778zm-57.966 471.77H72.419V72.424h555.153z"/><path d="M245.224 533.708a191.975 191.975 0 0 0 93.865 24.16h.674a316.82 316.82 0 0 0 67.108-8.39 212.252 212.252 0 0 0 52.176-19.126 17.784 17.784 0 0 0 9.395-14.764 20.112 20.112 0 0 0-2.683-12.077 22.507 22.507 0 0 0-12.081-10.07 24.154 24.154 0 0 0-15.434 1.344 195.608 195.608 0 0 1-91.183 20.803c-46.975.67-83.132-13.42-107.96-40.268-24.83-26.84-37.58-62.329-37.58-107.29v.005a200.309 200.309 0 0 1 22.647-96.468 169.116 169.116 0 0 1 61.907-64.174 190.323 190.323 0 0 1 99.992-24.328h2.013c34.224 0 61.655 9.395 81.118 27.516h-.004a99.397 99.397 0 0 1 30.202 75.497 140.821 140.821 0 0 1-20.807 75.496c-9.395 15.434-35.568 30.198-50.331 36.911a242.002 242.002 0 0 1 8.388-42.95l19.46-85.144h.004a21.055 21.055 0 0 0-14.427-26.088 22.22 22.22 0 0 0-25.165 8.389l-.67 1.343c-16.107-10.738-32.21-10.738-48.318-10.738h-2.687a99.071 99.071 0 0 0-52.934 16.777 121.543 121.543 0 0 0-41.942 44.292 131.433 131.433 0 0 0-15.434 61.655 97.144 97.144 0 0 0 16.861 59.473 61.319 61.319 0 0 0 51.001 24.16 79.113 79.113 0 0 0 45.214-11.914 77.72 77.72 0 0 0 13.926-11.24c.192 2.29.67 4.546 1.428 6.713a18.19 18.19 0 0 0 8.974 12.33 22.917 22.917 0 0 0 16.107 3.357 191.788 191.788 0 0 0 59.39-20.803 160.012 160.012 0 0 0 53.013-54.947 157.969 157.969 0 0 0 22.82-86.488 126.587 126.587 0 0 0-20.802-80.108 139.87 139.87 0 0 0-57.634-48.318 184.536 184.536 0 0 0-78.432-16.107c-67.108 0-122.724 20.802-165.59 62.998a214.833 214.833 0 0 0-65.01 159.382 218.1 218.1 0 0 0 21.477 98.565 167.764 167.764 0 0 0 67.945 70.632zm153.51-208.874a175.763 175.763 0 0 1-8.389 33.554 110.95 110.95 0 0 1-15.185 24.496 66.336 66.336 0 0 1-22.146 18.79 60.365 60.365 0 0 1-21.472 6.039 29.626 29.626 0 0 1-22.652-10.739 41.928 41.928 0 0 1-9.226-29.528 87.75 87.75 0 0 1 20.134-57.63 57.46 57.46 0 0 1 46.306-23.485 52.344 52.344 0 0 1 32.21 11.408 10.32 10.32 0 0 1 4.026 9.395z"/></svg>