<svg xmlns="http://www.w3.org/2000/svg" viewBox="0 0 700 700"><path d="M425.727 371.578 229.813 175.652c5.337-2.224 11.12-3.56 17.344-3.56h400.29c6.224 0 12.007 1.336 17.343 3.56L447.3 393.142l-21.575-21.573zM390.361 383.358l-144.549 144.55c-23.797-.666-43.14-20.463-43.14-44.478V216.57c0-6.224 1.335-12.007 3.558-17.343zM480.649 406.93l120.975 120.976H292.956L413.931 406.93l21.574 21.573c3.336 3.336 7.56 4.895 11.784 4.895 4.225 0 8.449-1.559 11.785-4.895zM691.913 216.57v266.86c0 24.015-19.35 43.812-43.141 44.477l-144.55-144.549 184.134-184.133c2.224 5.34 3.56 11.119 3.56 17.343zM113.717 366.673H24.763c-9.208 0-16.678-7.47-16.678-16.679 0-9.208 7.47-16.679 16.678-16.679h88.954c9.208 0 16.678 7.471 16.678 16.68 0 9.207-7.47 16.678-16.678 16.678zM113.717 255.481H47.002c-9.208 0-16.68-7.47-16.68-16.678 0-9.209 7.472-16.68 16.68-16.68h66.715c9.208 0 16.678 7.471 16.678 16.68 0 9.208-7.47 16.678-16.678 16.678zM113.717 477.865H47.002c-9.208 0-16.68-7.471-16.68-16.68 0-9.207 7.472-16.678 16.68-16.678h66.715c9.208 0 16.678 7.47 16.678 16.679 0 9.208-7.47 16.679-16.678 16.679z"/></svg>