<svg xmlns="http://www.w3.org/2000/svg" width="73" height="61"><g fill="none" fill-rule="evenodd" stroke="#3F6651" stroke-linejoin="round" stroke-width="4"><path d="M29 51.34c.53 1.507 3.258 3.538 6.963 2.252l1.21-5.108c1.642 1.485 4.684.223 4.684.223L43.7 38.454m3.08-3.499c.692.446 2.15 1.294 2.984 1.796.458.286 1.203.355 1.667.05C53.473 35.458 71.067 23.587 71 13.678 70.955 7.195 65.543 1.957 58.936 2c-3.092.02-6.28 1.411-8.493 3.56-2.244-2.12-5.452-3.468-8.54-3.448C35.294 2.156 29.956 7.465 30 13.945c.024 3.62 2.152 7.69 6.322 12.105.853 1.007 1.547 1.705 1.753 1.94"/><path d="m33.464 24-4.812 13.39 13.607-10.455c1.247-.94 3.932-1.61 6.363 1.21 1.902 2.205 1.757 5.247.044 6.63L36.086 45.51l-9.688 10.198c-1.59 1.714-3.5 2.946-7.232 3.179L2 59"/><path stroke-linecap="round" d="m2 39 7.134-1.762L22.9 19.036s4.687-3.565 7.1-5.091"/></g></svg>