<svg xmlns="http://www.w3.org/2000/svg" width="77" height="79"><g fill="none" fill-rule="evenodd" stroke="#3F6651" stroke-linejoin="round" stroke-width="4.32"><path d="M46.2 56.552A8.548 8.548 0 0 0 37.651 48a8.55 8.55 0 1 0 8.549 8.552zM51.6 78.6c0-3.722-2.589-7.448-8.066-9l-5.885 3.89-5.882-3.888C26.297 71.154 23.7 74.88 23.7 78.6m-10.799-54A6.3 6.3 0 1 0 12.9 12a6.3 6.3 0 0 0 .002 12.6zM22.8 36.3c0-2.607-1.837-5.214-5.724-6.3l-4.177 2.721-4.175-2.72C4.842 31.088 3 33.694 3 36.3m36.002-20.7a6.3 6.3 0 1 0-.005-12.599 6.3 6.3 0 0 0 .005 12.599zM48.9 28.2c0-2.607-1.836-5.214-5.723-6.3l-4.178 2.721-4.173-2.72C30.942 22.988 29.1 25.594 29.1 28.2m35.102-2.7a6.3 6.3 0 1 0-.004-12.6 6.3 6.3 0 0 0 .004 12.6zM74.1 37.2c0-2.607-1.838-5.214-5.725-6.3l-4.177 2.721-4.173-2.72C56.142 31.988 54.3 34.594 54.3 37.2"/><path stroke-linecap="round" d="M37.65 32.7V39M17.4 44.4l4.5 4.5m36-4.5-4.5 4.5"/></g></svg>