<?xml version="1.0" encoding="UTF-8" standalone="no"?>
<svg
   width="700pt"
   height="700pt"
   version="1.1"
   viewBox="0 0 700 700"
   id="svg1551"
   sodipodi:docname="noun-package-4567438.svg"
   inkscape:version="1.2.2 (b0a8486541, 2022-12-01)"
   xmlns:inkscape="http://www.inkscape.org/namespaces/inkscape"
   xmlns:sodipodi="http://sodipodi.sourceforge.net/DTD/sodipodi-0.dtd"
   xmlns="http://www.w3.org/2000/svg"
   xmlns:svg="http://www.w3.org/2000/svg">
  <defs
     id="defs1555" />
  <sodipodi:namedview
     id="namedview1553"
     pagecolor="#ffffff"
     bordercolor="#000000"
     borderopacity="0.25"
     inkscape:showpageshadow="2"
     inkscape:pageopacity="0.0"
     inkscape:pagecheckerboard="0"
     inkscape:deskcolor="#d1d1d1"
     inkscape:document-units="pt"
     showgrid="false"
     inkscape:zoom="0.25285714"
     inkscape:cx="466.66667"
     inkscape:cy="466.66667"
     inkscape:window-width="1920"
     inkscape:window-height="1043"
     inkscape:window-x="0"
     inkscape:window-y="0"
     inkscape:window-maximized="1"
     inkscape:current-layer="svg1551" />
  <g
     id="g1549"
     transform="matrix(1.4599856,0,0,1.4599856,-161.64072,-61.29471)"
     style="fill:#ffffff">
    <path
       d="m 261.18,282.41 -32.047,-13.844 -92.09,39.977 31.891,14 z"
       id="path1525"
       style="fill:#ffffff" />
    <path
       d="m 509.91,356.46 -27.844,12.133 v 123.2 l 98,-42.621 v -123.2 z"
       id="path1527"
       style="fill:#ffffff" />
    <path
       d="m 562.64,308.7 -31.578,-13.688 -92.09,39.82 31.734,13.848 36.246,-15.867 z"
       id="path1529"
       style="fill:#ffffff" />
    <path
       d="m 395.73,316.17 14.621,6.375 92.246,-40.133 -31.734,-13.844 -92.246,40.133 z"
       id="path1531"
       style="fill:#ffffff" />
    <path
       d="m 180.29,365.17 c 0,6.3125 -5.1172,11.434 -11.434,11.434 -6.3125,0 -11.434,-5.1211 -11.434,-11.434 v -22.867 l -37.488,-16.332 v 123.2 l 98,42.621 v -123.2 L 180.289,352.26 Z"
       id="path1533"
       style="fill:#ffffff" />
    <path
       d="m 321.38,308.7 -31.734,-13.688 -92.09,39.82 31.734,13.848 36.398,-15.867 z"
       id="path1535"
       style="fill:#ffffff" />
    <path
       d="m 240.64,491.79 97.844,-42.621 v -123.05 l -97.844,42.469 z"
       id="path1537"
       style="fill:#ffffff" />
    <path
       d="m 421.55,365.17 c 0.0352,3.0352 -1.1445,5.957 -3.2773,8.1133 -2.1328,2.1602 -5.043,3.375 -8.0781,3.375 -3.0352,0 -5.9414,-1.2148 -8.0781,-3.375 -2.1328,-2.1562 -3.3125,-5.0781 -3.2773,-8.1133 v -22.867 l -37.332,-16.18 v 123.04 l 97.844,42.621 v -123.2 l -37.801,-16.332 z"
       id="path1539"
       style="fill:#ffffff" />
    <path
       d="m 361.51,291.12 98,-42.621 v -122.89 l -98,42.625 z"
       id="path1541"
       style="fill:#ffffff" />
    <path
       d="m 301,164.81 c 0,6.2695 -5.0859,11.355 -11.355,11.355 -6.2734,0 -11.355,-5.0859 -11.355,-11.355 v -22.867 l -37.645,-16.332 v 123.04 l 98.156,42.621 V 168.232 L 301,151.9 Z"
       id="path1543"
       style="fill:#ffffff" />
    <path
       d="m 410.51,94.5 -92.09,39.977 31.734,13.844 3.2656,-1.5547 88.668,-38.422 z"
       id="path1545"
       style="fill:#ffffff" />
    <path
       d="m 382.04,82.055 -31.887,-13.844 -92.246,39.977 31.734,14 z"
       id="path1547"
       style="fill:#ffffff" />
  </g>
</svg>
