<svg xmlns="http://www.w3.org/2000/svg" viewBox="0 0 700 700"><path d="M82.793 327.666c-21.93-2.055-43.173-4.11-66.47-5.482C30.027 209.8 82.11 122.087 178.73 64.524 278.781 4.909 383.624 2.855 490.525 48.078c-9.593 21.242-19.187 40.43-28.097 60.304C282.89 26.834 95.127 157.038 82.792 327.666zm530.394-23.297c11.65 77.436-4.794 148.017-52.078 209.69-47.285 60.989-110.328 94.568-187.763 102.79 2.056 21.93 3.428 43.173 5.483 65.099 162.408-5.483 335.78-168.575 300.146-389.23-21.931 4.11-43.173 7.538-65.788 11.649zM82.108 374.267c-20.56 2.055-41.801 3.427-63.727 5.483 4.8 135.682 123.347 288.496 302.201 303.571 2.056-21.93 4.111-43.857 5.483-64.416C186.956 594.924 105.41 514.06 82.11 374.266zm479.685-186.392c16.447 21.931 29.463 45.229 39.745 71.265 20.559-7.538 41.118-15.076 63.044-22.614-24.67-65.787-65.099-118.549-122.662-159.666-13.021 18.503-25.354 36.319-38.374 54.822 21.926 16.448 41.114 34.268 58.245 56.194zM513.14 493.503c-44.54-33.58-87.713-55.505-97.307-60.305-1.372-.683-2.056-2.055-2.056-3.427V354.39c9.594-6.167 15.76-17.132 15.76-29.464v-78.803c0-39.063-31.524-70.582-70.582-70.582h-17.131c-39.063 0-70.583 31.524-70.583 70.582v78.803c0 12.332 6.167 23.297 15.76 29.464v75.381c0 1.372-.683 2.739-2.055 3.427-9.594 4.8-53.45 26.726-97.308 60.305 35.635 40.43 85.658 67.154 142.535 72.636l11.65-53.45c-32.892-45.913 2.738-48.656 8.909-48.656 6.166 0 41.801 2.055 8.91 48.656l11.649 53.45c55.5-5.482 106.212-32.207 141.85-72.636z"/></svg>