<svg xmlns="http://www.w3.org/2000/svg" xmlns:xlink="http://www.w3.org/1999/xlink" width="68" height="76"><defs><path id="a" d="M0 0h68v68H0z"/><path id="c" d="M.83.63h19.217v19.22H.83z"/></defs><g fill="none" fill-rule="evenodd"><g transform="translate(-3 11.428)"><mask id="b" fill="#fff"><use xlink:href="#a"/></mask><path fill="#3F6651" d="M60.99 55.312a24.22 24.22 0 0 1-2.07 2.485c-.04.04-1.006.983-2.469 2.048l-.04.03c-3.642-3.906-9.87-10.59-12.017-12.912.228-.675.637-1.602 1.318-2.283.67-.669 1.714-1.088 2.5-1.313 2.268 2.094 8.925 8.292 12.804 11.906a1.48 1.48 0 0 1-.027.04m-22.605-7.038a18.647 18.647 0 0 1-7.08 1.37c-.147 0-.294-.014-.44-.018l19.9-19.9c.062 2.651-.39 5.273-1.427 7.722a3.774 3.774 0 0 0-.129.35 8.328 8.328 0 0 0-.43 1.404c-.085.001-.169-.005-.253.006-.356.05-3.538.54-5.64 2.643-2.082 2.08-2.62 5.003-2.675 5.33a1.92 1.92 0 0 0-.023.452 7.352 7.352 0 0 0-1.803.641m-12.97.507c-.22-.064-.442-.124-.66-.194a23.075 23.075 0 0 1-1.234-.43c-.155-.059-.307-.124-.46-.187a22.803 22.803 0 0 1-1.036-.442c-.166-.075-.33-.157-.494-.238a24.86 24.86 0 0 1-2.363-1.3c-.11-.07-.222-.134-.33-.204a26.51 26.51 0 0 1-1.287-.878c-.065-.047-.127-.098-.19-.146a26.109 26.109 0 0 1-2.247-1.863 23.31 23.31 0 0 1-1.258-1.238c-.072-.076-.147-.148-.218-.224a27.119 27.119 0 0 1-1.034-1.18c-.088-.107-.17-.217-.258-.326a26.01 26.01 0 0 1-1.649-2.296c-.089-.138-.18-.276-.266-.416a26.795 26.795 0 0 1-.79-1.367l-.005-.01c-5.092-9.537-2.117-19.065 3.09-24.275 3.641-3.639 8.761-5.726 14.045-5.726 3.514 0 6.956.886 10.227 2.632l.051.03c.365.196.725.401 1.08.614.078.047.153.096.231.143.308.19.614.384.914.585.051.035.103.07.154.107a27.12 27.12 0 0 1 8.108 8.703c.042.073.082.146.123.22a25.86 25.86 0 0 1 .722 1.37 24.261 24.261 0 0 1 1.679 4.529L25.915 48.917a18.618 18.618 0 0 1-.5-.136m38.514 3.737c-.773-.72-7.163-6.674-10.988-10.224-.828-1.759.004-2.899.08-3.287 1.77-4.18 2.152-8.634 1.423-12.962h.001l-.008-.043a26.584 26.584 0 0 0-.729-3.112l-.032-.104a28.314 28.314 0 0 0-.488-1.467l-.022-.06a28.572 28.572 0 0 0-1.292-2.984c-.02-.042-.043-.083-.064-.125A30.186 30.186 0 0 0 49.262 14l-.146-.196a29.744 29.744 0 0 0-.852-1.095l-.16-.2a31.334 31.334 0 0 0-2.16-2.353l-.252-.24a31.999 31.999 0 0 0-.935-.866l-.275-.243a30.616 30.616 0 0 0-2.494-1.944c-.117-.082-.236-.162-.354-.242a28.48 28.48 0 0 0-.999-.65c-.127-.08-.253-.16-.38-.238-.449-.27-.9-.532-1.363-.779l-.009-.006c-4-2.137-8.14-3.105-12.113-3.105-6.503 0-12.565 2.591-16.874 6.896-6.937 6.944-9.424 18.436-3.79 28.99l.01.015c.295.553.61 1.094.938 1.626.111.178.23.35.343.526.23.354.46.705.703 1.05.142.201.292.398.44.597a30.469 30.469 0 0 0 1.196 1.511 31.262 31.262 0 0 0 2.03 2.18c.188.183.373.37.566.55.284.262.577.515.871.767.177.153.348.312.527.46.451.37.913.727 1.382 1.071.238.174.484.336.727.503.257.177.512.357.774.525.267.173.538.334.81.498.244.146.488.293.736.433a33.247 33.247 0 0 0 1.59.832 22.79 22.79 0 0 0 1.623.726c.311.13.621.257.936.374.231.086.466.161.7.241.33.113.657.23.99.33.07.021.141.036.211.056.788.23 1.584.416 2.385.571.202.04.402.087.604.121l.005-.003c1.36.228 2.73.357 4.101.357 2.977 0 5.952-.557 8.804-1.754.013-.003.672-.44 1.697-.44.48 0 1.041.1 1.651.382 3.59 3.865 9.437 10.135 10.195 10.95a3.343 3.343 0 0 0 2.6 1.217c.857 0 1.718-.31 2.556-.922a27.782 27.782 0 0 0 2.976-2.489c.2-.204 1.254-1.3 2.437-2.92.938-1.29.992-2.41.872-3.126a3.34 3.34 0 0 0-1.163-2.024" mask="url(#b)"/></g><g transform="translate(47)"><mask id="d" fill="#fff"><use xlink:href="#c"/></mask><path fill="#3F6651" d="M6.754 6.553a5.174 5.174 0 0 1 3.683-1.524c1.392 0 2.701.542 3.685 1.524a5.22 5.22 0 0 1 0 7.37 5.17 5.17 0 0 1-3.682 1.527c-1.391 0-2.7-.542-3.686-1.53-2.03-2.028-2.03-5.334 0-7.367M10.44 19.85c2.459 0 4.918-.94 6.794-2.816 3.752-3.752 3.752-9.836 0-13.59A9.59 9.59 0 0 0 10.436.629a9.577 9.577 0 0 0-6.793 2.814c-3.752 3.755-3.752 9.84.001 13.59a9.578 9.578 0 0 0 6.796 2.817" mask="url(#d)"/></g></g></svg>