<svg xmlns="http://www.w3.org/2000/svg" width="74" height="73"><g fill="none" fill-rule="evenodd" stroke="#3F6651" stroke-width="4"><path d="M71 36.5C71 55.559 55.557 71 36.5 71S2 55.559 2 36.5C2 17.445 17.443 2 36.5 2S71 17.445 71 36.5z"/><path d="m46.24 70-4.345-2.201-1.79-3.624v-1.811l-1.79-3.624V56.93l-3.578-1.812h-5.369l-3.579-1.812L24 47.87v-5.435l3.579-3.623L31.158 37h5.368l1.79 1.812 1.79 1.811h1.789l1.79-1.811h5.368v1.811l3.579 7.247L58 49.682v1.812l-3.579 3.623-1.79 1.812v3.623l-3.578 3.623v4.838M59 64v-5"/><path d="m72 35.071-1.818 1.786-3.637-3.571-1.818-1.786H62.91v1.786l-1.818 1.785v1.786l1.818 1.786v1.786L61.091 44h-3.636l-1.819-3.571-1.818-8.929H52l-1.818 1.786h-1.818l-1.819-3.572h-5.454L39.273 31.5H32v-3.571l1.818-1.786h1.818l1.819-1.786h3.636l1.818-1.786 1.818-1.785V19"/><path d="M38.833 25 37 21.364l1.833-5.455 5.5-1.818H48v-1.818l-1.833-3.637L48 5M30 21l2-1.75L34 14m-8.611-9h1.805L29 6.778v1.778l-3.611 1.777h-3.611l-1.806 1.778-1.806 1.778v1.778l-1.805 1.777-3.612 1.778L9.14 21H6M3 34l3.593 5.284 1.882 1.844v5.532l3.762 5.533L16 54.037v1.844l-1.881 3.689V63"/></g></svg>