<svg xmlns="http://www.w3.org/2000/svg" xmlns:xlink="http://www.w3.org/1999/xlink" width="56" height="64"><defs><path id="a" d="M0 0h55.807v63.547H0z"/></defs><g fill="none" fill-rule="evenodd"><mask id="b" fill="#fff"><use xlink:href="#a"/></mask><path fill="#3F6651" d="M51.592 59.197c-.191.23-.495.35-.877.35H5.092c-.382 0-.686-.12-.878-.35-.191-.229-.258-.549-.19-.926l.595-3.362c.183-1.033 1.304-1.972 2.353-1.972h41.863c1.049 0 2.17.94 2.354 1.972l.594 3.362c.068.377.001.697-.191.926zM14.706 36.575h26.395l3.495 12.362H11.211l3.495-12.361zM23.062 7.02C23.516 5.41 25.381 4 27.053 4h1.701c1.672 0 3.537 1.41 3.992 3.02l3.402 12.032H19.659L23.062 7.02zm-4.533 16.033h18.75l2.692 9.523H15.837l2.692-9.523zm37.193 34.522-.595-3.363c-.524-2.957-3.288-5.274-6.292-5.274h-.082L36.595 5.932C35.654 2.604 32.21 0 28.754 0h-1.701c-3.457 0-6.9 2.605-7.841 5.931L7.055 48.938h-.083c-3.004 0-5.768 2.316-6.291 5.273l-.596 3.363c-.272 1.535.116 3.063 1.065 4.194.948 1.13 2.384 1.78 3.942 1.78h45.623c1.558 0 2.994-.65 3.942-1.78.949-1.131 1.337-2.66 1.065-4.194z" mask="url(#b)"/></g></svg>