<?xml version="1.0" encoding="UTF-8" standalone="no"?><svg xmlns="http://www.w3.org/2000/svg" width="700pt" height="700pt" viewBox="0 0 700 700"><path d="M527.71 253.05h-31.848v-51.801a68.34 68.34 0 0 0-68.34-68.336h-51.973v-29.227A82.947 82.947 0 0 0 292.6 20.737a83.036 83.036 0 0 0-82.601 82.949v29.051h-52.5a68.428 68.428 0 0 0-68.164 68.512v51.625h30.891a82.862 82.862 0 0 1 82.95 82.95 82.865 82.865 0 0 1-82.95 82.95H89.335v52.5a68.434 68.434 0 0 0 20.105 48.012 68.409 68.409 0 0 0 48.059 19.977h51.012v-33.074a82.866 82.866 0 0 1 82.95-82.95c22 0 43.102 8.738 58.656 24.293a82.964 82.964 0 0 1 24.297 58.656v33.074h52.5a68.335 68.335 0 0 0 68.336-68.336v-51.977h31.852A82.947 82.947 0 0 0 610.051 336a82.95 82.95 0 0 0-82.34-82.95z" style="fill:#f06" transform="matrix(1.30264 0 0 1.30264 -101.758 -15.283)"/></svg>