<svg xmlns="http://www.w3.org/2000/svg" xmlns:xlink="http://www.w3.org/1999/xlink" width="68" height="66"><defs><path id="a" d="M0 72.311h83.52v-72H0z"/></defs><g fill="none" fill-rule="evenodd" transform="translate(-12 -2)"><path fill="#3F6651" stroke="#3F6651" stroke-width="1.44" d="m31.032 34.375-1.564-1.49 8.68-9.111c.232-.355.46-.912.552-1.49l1.804-12.995.734-.162c.192-.043 4.748-1.003 7.44 2.151 2.667 3.121 2.343 8.973-.956 17.395l-.395 1.006-2.01-.788.394-1.007c3.72-9.49 2.774-13.506 1.325-15.204-1.338-1.564-3.491-1.63-4.608-1.54l-1.592 11.463a6.059 6.059 0 0 1-1.024 2.536l-8.78 9.236zm31.224 3.795H46.654v-2.16h15.602a2.848 2.848 0 0 0 2.03-4.84l-.755-.77 1.54-1.514.756.77a4.968 4.968 0 0 1 1.434 3.507 5.013 5.013 0 0 1-5.005 5.007"/><mask id="b" fill="#fff"><use xlink:href="#a"/></mask><path fill="#3F6651" stroke="#3F6651" stroke-width="1.44" d="M46.872 30.317h6.661v-2.16h-6.661zM63.11 46.021H47.51v-2.16H63.11a2.849 2.849 0 0 0 2.847-2.845 2.85 2.85 0 0 0-2.847-2.847H47.51v-2.16H63.11a5.013 5.013 0 0 1 5.007 5.007 5.013 5.013 0 0 1-5.007 5.005" mask="url(#b)"/><path fill="#3F6651" stroke="#3F6651" stroke-width="1.44" d="M61.744 53.874H46.14v-2.16h15.604a2.847 2.847 0 0 0 0-5.694H46.14v-2.16h15.604a5.013 5.013 0 0 1 5.004 5.01 5.012 5.012 0 0 1-5.004 5.004" mask="url(#b)"/><path fill="#3F6651" stroke="#3F6651" stroke-width="1.44" d="M59.518 61.727H44.996c-5.302 0-9.333-2.002-10.402-2.59h-4.011v-2.16h4.596l.26.156c.04.024 4.101 2.434 9.557 2.434h14.522a2.849 2.849 0 0 0 2.847-2.844 2.851 2.851 0 0 0-2.847-2.85H43.916v-2.16h15.602a5.013 5.013 0 0 1 5.007 5.01 5.013 5.013 0 0 1-5.007 5.004" mask="url(#b)"/><path fill="#3F6651" stroke="#3F6651" stroke-width="1.44" d="M26.356 61.132h3.56V33.927h-3.56v27.205zm-2.16 2.16h7.88V31.767h-7.88v31.525z" mask="url(#b)"/><path fill="#3F6651" stroke="#3F6651" stroke-width="1.8" d="M26.356 66.551H12.959v-2.16h11.237V31.806H12.959v-2.16h13.397z" mask="url(#b)"/><path fill="#3F6651" stroke="#3F6651" stroke-width="1.44" d="M66.182 21.27c.173 0 .345.041.5.126l5.293 2.78-1.011-5.89c-.058-.35.056-.707.311-.955l4.279-4.171-5.914-.86a1.073 1.073 0 0 1-.812-.59l-2.646-5.359-2.644 5.36c-.156.317-.46.54-.812.589l-5.914.86 4.279 4.17c.255.249.369.605.31.955l-1.01 5.89 5.29-2.78c.155-.084.328-.125.5-.125m-7.224 5.96a1.08 1.08 0 0 1-1.065-1.264l1.285-7.486-5.439-5.3a1.085 1.085 0 0 1-.274-1.107c.127-.39.466-.676.872-.736l7.517-1.091 3.361-6.813c.363-.739 1.573-.739 1.935 0l3.364 6.813 7.516 1.09c.406.061.746.346.873.737.125.389.02.819-.274 1.106l-5.44 5.3 1.286 7.487a1.08 1.08 0 0 1-1.568 1.139l-6.724-3.534-6.722 3.534c-.16.084-.33.125-.503.125" mask="url(#b)"/></g></svg>