<svg xmlns="http://www.w3.org/2000/svg" xmlns:xlink="http://www.w3.org/1999/xlink" width="72" height="72"><defs><path id="a" d="M0 0h82v82H0z"/></defs><g fill="none" fill-rule="evenodd" transform="translate(-5 -5)"><mask id="b" fill="#fff"><use xlink:href="#a"/></mask><path fill="#3F6651" stroke="#3F6651" d="m28.156 60.394 11.618 11.628c.65.65 1.803.65 2.452 0l7.883-7.891a10.422 10.422 0 0 1-5.638-9.265c0-5.746 4.67-10.419 10.412-10.419 3.957 0 7.502 2.26 9.256 5.647l7.887-7.892c.325-.327.503-.76.503-1.228 0-.467-.178-.903-.505-1.228L60.43 28.14a1.735 1.735 0 0 1 .502-2.89c.381-.157.796-.17 1.173-.056.477.1.966.152 1.456.152 3.826 0 6.94-3.117 6.94-6.946 0-3.83-3.114-6.946-6.94-6.946-3.828 0-6.941 3.115-6.941 6.946 0 .532.059 1.06.175 1.568a1.734 1.734 0 0 1-2.917 1.617L42.227 9.927c-.648-.65-1.804-.651-2.453 0l-7.883 7.889a10.428 10.428 0 0 1 5.64 9.266c0 5.744-4.672 10.42-10.412 10.42-3.957 0-7.504-2.26-9.257-5.65l-7.886 7.894c-.325.325-.505.761-.505 1.228 0 .467.178.901.505 1.226l11.649 11.657a1.735 1.735 0 0 1-1.613 2.921 7.022 7.022 0 0 0-1.57-.175c-3.828 0-6.941 3.115-6.941 6.946 0 3.83 3.113 6.946 6.941 6.946 3.826 0 6.941-3.115 6.941-6.946a7.06 7.06 0 0 0-.163-1.507 1.738 1.738 0 0 1 .292-1.514 1.72 1.72 0 0 1 2.233-.459c.153.087.291.196.411.325M41.001 76c-1.394 0-2.7-.542-3.682-1.523l-8.703-8.71c-1.019 4.683-5.194 8.201-10.174 8.201-5.742 0-10.412-4.674-10.412-10.419 0-4.986 3.516-9.162 8.196-10.181l-8.704-8.71A5.172 5.172 0 0 1 6 40.973c0-1.393.54-2.702 1.52-3.683l9.846-9.853a1.735 1.735 0 0 1 2.941.966c.669 3.292 3.528 5.624 6.812 5.624 3.826 0 6.94-3.117 6.94-6.946a6.943 6.943 0 0 0-5.577-6.814 1.734 1.734 0 0 1-.95-3.002l9.788-9.795c1.963-1.962 5.399-1.96 7.361-.001l8.705 8.712c1.017-4.684 5.193-8.202 10.174-8.202 5.74 0 10.411 4.673 10.411 10.42 0 4.983-3.515 9.161-8.194 10.18l8.703 8.711c.98.981 1.52 2.29 1.52 3.683a5.17 5.17 0 0 1-1.52 3.683l-9.843 9.85a1.74 1.74 0 0 1-1.756.425 1.731 1.731 0 0 1-1.182-1.368c-.673-3.312-3.534-5.644-6.816-5.644-3.828 0-6.941 3.116-6.941 6.946a6.937 6.937 0 0 0 5.525 6.8 1.738 1.738 0 0 1 1.036 2.98l-9.822 9.831A5.168 5.168 0 0 1 41.001 76" mask="url(#b)"/></g></svg>