<svg xmlns="http://www.w3.org/2000/svg" viewBox="0 0 700 700"><path fill-rule="evenodd" d="M287.269 14.905c149.348 0 270.45 121.076 270.45 270.45 0 50.134-13.649 97.115-37.422 137.38l151.53 151.557c26.304 26.304 26.304 69.316 0 95.646-26.303 26.272-69.315 26.272-95.614 0L424.656 518.34c-40.299 23.804-87.248 37.485-137.38 37.485-149.35 0-270.45-121.108-270.45-270.477.03-149.335 121.138-270.45 270.45-270.45Zm.03 101.424c-93.334 0-169.027 75.685-169.027 169.055 0 93.366 75.69 169.028 169.028 169.028 21.801 0 42.609-4.12 61.785-11.651l.188-.063 3.467-1.438.345-.157h.063l1.998-.873 1.689-.748.282-.125 1.998-.905 1.438-.685.533-.251 3.154-1.595.747-.377 1.935-1.03.936-.502 1-.565 1.903-1.061 1.657-.936.252-.126 1.872-1.093.439-.282 2.907-1.81.377-.25.22-.126 1.626-1.062 1.81-1.155v-.032l1.809-1.218 1.532-1.062.25-.188 1.753-1.281.063-.031 3.372-2.563h.032l1.03-.81.654-.534 1.657-1.375 1.684-1.307 1.658-1.439h.031l1.595-1.406 1.627-1.438.407-.377 1.188-1.093 1.595-1.47.188-.188 1.375-1.312 2.939-2.939.125-.157 1.313-1.344.188-.22 1.501-1.563 1.093-1.219.377-.407 1.438-1.595.873-1.03.533-.623 1.407-1.658.685-.842.654-.81 2.688-3.378.031-.063 2.562-3.373.032-.031 1.28-1.778.19-.251 1.03-1.533 1.25-1.809 1.186-1.81.251-.376 1.438-2.249 1.533-2.436.282-.471 1.124-1.872.126-.251.936-1.658 1.061-1.903.565-.968.502-.936.999-1.935.408-.748.094-.188 1.5-2.934.252-.533.685-1.438.905-1.966.125-.283.748-1.72.842-1.998.031-.031.81-1.967.717-1.84.094-.22c7.5-19.118 11.651-39.953 11.651-61.754-.12-93.293-75.81-168.988-169.175-168.988z" style="stroke-width:1.33873"/></svg>