<svg xmlns="http://www.w3.org/2000/svg" width="67" height="71"><g fill="none" fill-rule="evenodd" stroke="#3F6651" stroke-width="4"><path d="M46 62v-4.319C46 53.764 37.65 52 33.5 52S21 53.764 21 57.681V62m12.5-15c3.306 0 5.5-2.495 5.5-5.57v-1.86c0-3.075-2.194-5.57-5.5-5.57S28 36.495 28 39.57v1.86c0 3.075 2.194 5.57 5.5 5.57zm-22 3C8.194 50 6 47.504 6 44.429v-1.86C6 39.496 8.194 37 11.5 37s5.5 2.495 5.5 5.57v1.859C17 47.504 14.806 50 11.5 50zm44 0c3.306 0 5.5-2.496 5.5-5.571v-1.86C61 39.496 58.806 37 55.5 37S50 39.495 50 42.57v1.859C50 47.504 52.194 50 55.5 50z"/><path d="M65 71V59.304c0-2.4-1.983-4.304-4.407-4.304h-4.407l-7.344 7.273h-8.814s-.657 5.818 4.407 5.818h8.813l5.876-5.849M2 71V59.304C2 56.904 3.957 55 6.384 55h4.412l7.352 7.273h8.824s.659 5.818-4.412 5.818h-8.823l-5.87-5.849M55 67v4m-42.5-4v4M23 68h22M14.933 2h38.134A2.927 2.927 0 0 1 56 4.919v20.43a2.927 2.927 0 0 1-2.933 2.919H47.2v6.27c0 1.356-1.694 1.978-2.581.949l-6.219-7.22H14.933A2.927 2.927 0 0 1 12 25.35V4.919A2.927 2.927 0 0 1 14.933 2z"/></g></svg>