<svg xmlns="http://www.w3.org/2000/svg" xmlns:xlink="http://www.w3.org/1999/xlink" width="85" height="59"><defs><path id="a" d="M0 0h125.84v85.91H0z"/></defs><g fill="none" fill-rule="evenodd" transform="translate(-21 -13)"><mask id="b" fill="#fff"><use xlink:href="#a"/></mask><path fill="#3F6651" stroke="#3F6651" stroke-width="1.21" d="M100.722 31.751 90.56 42.758c-.928 1.005-2.588 1.046-3.566.086l-4.825-4.739-.293-.289c-.003-.002-.006-.003-.008-.006L70.882 27.022c-.425-.42-1.007-.631-1.73-.631-1.61 0-4.236.995-5.002 1.3l-2.253.898c-1.324.53-2.982-.172-3.542-1.466l-.081-.186c-.598-1.378.015-3.14 1.337-3.85l6.637-3.562c1.499-.804 4.38-.682 5.803.243l3.517 2.288c1.297.842 2.989 1.305 4.766 1.305 1.772 0 3.46-.46 4.753-1.298l5.208-3.375a2.971 2.971 0 0 1 1.632-.463c.983 0 1.906.42 2.471 1.123l6.472 8.05c.96 1.194.89 3.228-.148 4.353zm-12.07 21.093c-.9.868-2.506.744-3.52-.263l-7.835-7.878a1.853 1.853 0 0 0-2.625 2.615l7.823 7.867.009.009.375.376c.48.483.738 1.117.724 1.785-.016.666-.299 1.288-.857 1.804-1.071.989-2.847.951-3.875-.082l-4.816-4.835-2.26-2.27a1.87 1.87 0 0 0-.77-.455 1.843 1.843 0 0 0-1.85.45 1.855 1.855 0 0 0-.006 2.622l5.998 6.023c.517.52.81 1.215.803 1.907a2.121 2.121 0 0 1-.636 1.527c-.921.885-2.549.777-3.555-.244l-4.491-4.546-.009-.008-.006-.005c-.044-.045-.095-.08-.143-.119-.047-.04-.091-.083-.142-.118-.056-.038-.118-.064-.176-.094-.049-.025-.095-.057-.145-.077-.065-.028-.134-.044-.202-.063-.047-.013-.092-.033-.14-.042-.083-.017-.168-.022-.253-.026-.033-.002-.066-.01-.1-.01a1.88 1.88 0 0 0-.32.027l-.033.003a1.783 1.783 0 0 0-.336.096l-.008.002c-.1.04-.196.092-.29.15-.01.006-.022.01-.034.018-.062.041-.121.094-.18.144-.037.03-.078.055-.112.089l-.002.003-.003.002c-.052.052-.094.111-.138.168-.032.04-.07.076-.098.118a1.724 1.724 0 0 0-.13.243c-.012.026-.032.05-.041.077-.037.088-.062.18-.084.272-.006.024-.016.047-.021.07-.018.09-.023.18-.03.271-.001.027-.007.055-.008.083 0 .082.012.162.022.242.004.039.003.077.009.113.014.073.04.145.063.217.013.042.02.085.037.127.025.065.064.127.096.19.025.044.043.09.07.134.035.053.08.1.12.15.038.047.07.097.113.141l2.36 2.405c.51.52.36 1.826-.604 2.795-.41.412-.973.638-1.589.64h-.003a2.74 2.74 0 0 1-1.92-.815l-2.827-2.827c1.514-2.439 1.229-5.688-.888-7.804l-.145-.146a6.277 6.277 0 0 0-4.471-1.848l-.022.001a6.312 6.312 0 0 0-1.847-4.496l-.144-.146a6.26 6.26 0 0 0-3.54-1.772 6.315 6.315 0 0 0-1.743-5.591l-.145-.147a6.282 6.282 0 0 0-4.471-1.847c-.08 0-.159.01-.239.013a6.287 6.287 0 0 0-1.83-4.266l-.145-.147A6.283 6.283 0 0 0 35.948 34c-1.692 0-3.28.657-4.47 1.847l-.337.337-4.708-4.018c-1.102-.94-1.267-2.689-.36-3.817l6.473-8.052c1-1.243 3.14-1.725 4.571-1.025l3.861 1.877c2.764 1.342 6.989 1.139 9.612-.465l1.358-.832c1.643-1.003 4.684-1.355 6.513-.751l.46.152-1.06.569c-3 1.61-4.341 5.464-2.988 8.59l.08.187a6.48 6.48 0 0 0 5.96 3.886c.813 0 1.606-.152 2.357-.452l2.252-.898c1.515-.603 2.65-.892 3.247-.994L79.625 40.8l8.805 8.686c.527.522.829 1.214.824 1.9a2.016 2.016 0 0 1-.602 1.458zM49.993 65.41l-.145-.146a2.599 2.599 0 0 1-.761-1.852 2.6 2.6 0 0 1 .761-1.853l2.847-2.848a2.598 2.598 0 0 1 1.852-.761c.702 0 1.36.27 1.85.761l.147.146c.49.492.762 1.15.762 1.852a2.6 2.6 0 0 1-.762 1.852l-2.847 2.849c-.983.982-2.721.982-3.704 0zm-8.461-4.52-.142-.142a2.596 2.596 0 0 1-.76-1.852c0-.695.265-1.346.747-1.836l4.85-4.852a2.599 2.599 0 0 1 1.834-.746c.703 0 1.36.27 1.852.762l.145.145c.492.491.762 1.149.762 1.852 0 .704-.27 1.363-.762 1.854l-4.818 4.819c-.983.983-2.718.988-3.708-.004zm-7.292-5.636-.146-.145a2.599 2.599 0 0 1-.76-1.852 2.6 2.6 0 0 1 .76-1.853l1.674-1.674c.033-.032.07-.06.102-.093l4.697-4.699c.018-.016.027-.037.046-.056l.17-.17a2.598 2.598 0 0 1 1.852-.76c.702 0 1.36.27 1.85.76l.147.147a2.625 2.625 0 0 1 0 3.705l-1.007 1.008-.036.03-4.818 4.82c-.015.014-.025.03-.039.044l-.788.788c-.985.983-2.725.982-3.704 0zm-4.84-8.384a2.596 2.596 0 0 1-.76-1.853c0-.703.269-1.361.76-1.852l4.696-4.7a2.6 2.6 0 0 1 1.852-.76c.703 0 1.36.27 1.852.76l.147.148a2.6 2.6 0 0 1 .761 1.853c0 .678-.256 1.31-.714 1.795l-4.792 4.794c-.991.939-2.69.927-3.656-.04l-.145-.145zm74.357-21.796-6.472-8.05c-1.262-1.57-3.263-2.505-5.358-2.505-1.317 0-2.58.365-3.647 1.057l-5.208 3.374c-1.38.896-4.103.896-5.483-.003l-3.517-2.288c-1.398-.907-3.245-1.407-5.207-1.407-1.632 0-3.143.348-4.368 1.006l-1.078.578-3.796-1.256c-2.838-.942-7.061-.455-9.608 1.108l-1.358.832c-1.571.962-4.403 1.098-6.06.292l-3.86-1.876c-3.002-1.457-6.987-.562-9.077 2.036l-6.474 8.052c-2.165 2.697-1.788 6.715.842 8.959l4.485 3.828-1.732 1.733a6.28 6.28 0 0 0-1.847 4.473 6.28 6.28 0 0 0 1.847 4.474l.145.146a6.251 6.251 0 0 0 3.008 1.671 6.348 6.348 0 0 0-.306 1.949c0 1.692.655 3.28 1.847 4.471l.145.147a6.282 6.282 0 0 0 4.472 1.848c.298 0 .59-.028.88-.068a6.275 6.275 0 0 0 1.803 3.72l.14.14a6.285 6.285 0 0 0 4.473 1.848c.762 0 1.499-.14 2.192-.395a6.249 6.249 0 0 0 1.647 2.916l.146.146a6.284 6.284 0 0 0 4.472 1.848c1.693 0 3.28-.657 4.47-1.848l1.242-1.242 2.701 2.7a6.473 6.473 0 0 0 4.54 1.901h.009c1.608-.002 3.103-.618 4.211-1.73a6.855 6.855 0 0 0 1.463-2.217 6.464 6.464 0 0 0 3.284.912c1.512 0 3.002-.543 4.141-1.642.909-.876 1.474-2.014 1.674-3.257a6.597 6.597 0 0 0 5.737-1.628 6.114 6.114 0 0 0 1.99-4.394c0-.107-.007-.213-.01-.318 1.44-.04 2.846-.562 3.927-1.603 1.11-1.072 1.726-2.53 1.736-4.105.009-1.68-.693-3.341-1.929-4.56l-.023-.023a6.208 6.208 0 0 0 2.274-1.553l10.162-11.006c2.308-2.501 2.445-6.538.313-9.191z" mask="url(#b)"/></g></svg>