<svg xmlns="http://www.w3.org/2000/svg" xmlns:xlink="http://www.w3.org/1999/xlink" width="59" height="74"><defs><path id="a" d="M0 0h59v74H0z"/></defs><g fill="none" fill-rule="evenodd"><mask id="b" fill="#fff"><use xlink:href="#a"/></mask><path fill="#3F6651" stroke="#3F6651" d="M32.551 70.633a.457.457 0 0 1-.22.097l-3.475.031c-.052 0-.103.004-.155.009a.69.69 0 0 1-.07.004.475.475 0 0 1-.31-.095l-.001-.008-4.46-27.403a1.612 1.612 0 0 0-3.181 0l-4.461 27.403-.002.008a.474.474 0 0 1-.308.095.704.704 0 0 1-.072-.004 1.623 1.623 0 0 0-.155-.009l-3.474-.031a.463.463 0 0 1-.22-.097l4.88-33.298a1.57 1.57 0 0 0 .017-.228l.06-15.802c.037-.104.158-.284.606-.51l9.693-.003c.136.057.328.208.411.324l-.001.062-.002.708a1.608 1.608 0 0 0-.003.7l-.05 14.478c0 .082.006.163.019.243l4.934 33.326zm24.837-50.08h-.004l-1.747.004c-.55-5.416-3.414-10.254-6.875-14.335-1.867-2.2-3.976-4.262-6.295-5.983-.708-.525-1.798-.118-2.206.578-.47.806-.138 1.651.54 2.176-.264-.202.223.178.352.283a41.573 41.573 0 0 1 6.216 6.31c1.425 1.793 3.152 4.626 3.995 6.85.477 1.259.907 2.927 1.038 4.013l.012.117-21.559.056c-.102-.661-.444-1.315-.993-1.87-.623-.628-1.422-1.054-2.192-1.17a1.611 1.611 0 0 0-.238-.017h-.001l-10.23.005a1.61 1.61 0 0 0-.625.125l-.152.069a1.51 1.51 0 0 0-.168-.038l-7.13-1.184 2.986-.82a1.613 1.613 0 0 0-.852-3.11L1.186 15.374a1.612 1.612 0 0 0 .161 3.147l12.454 2.068a3.684 3.684 0 0 0-.062.312 1.47 1.47 0 0 0-.018.232l-.059 15.848-4.879 33.277a3.1 3.1 0 0 0 .653 2.353c.587.743 1.493 1.23 2.486 1.336.052.006.104.008.156.008l3.507.031c.108.01.216.014.323.014 1.772 0 3.268-1.215 3.495-2.831l2.866-17.61 2.866 17.61C25.362 72.785 26.858 74 28.63 74c.107 0 .216-.004.322-.014l3.508-.03c.052 0 .104-.003.155-.009.993-.105 1.9-.593 2.486-1.337.531-.673.764-1.5.657-2.326l-.005-.029-4.931-33.3.046-13.106 21.571-.057c-.032.332-.072.64-.112.884-.412 2.486-1.256 4.53-2.444 6.654-1.156 2.065-2.36 3.675-3.808 5.343a42.516 42.516 0 0 1-3.667 3.719c-.393.352-.793.698-1.202 1.033-.24.197-.708.55-.182.152-.7.53-1.062 1.38-.578 2.208.404.691 1.502 1.11 2.204.578 2.616-1.978 4.951-4.378 6.98-6.947 3.1-3.93 5.614-8.612 6.035-13.633l1.728-.004a1.613 1.613 0 0 0-.004-3.226zM16.596 7.187c.602-2.71 3.327-4.275 5.862-3.71 2.707.602 4.27 3.33 3.706 5.867-.68 2.691-3.268 4.287-5.862 3.71-2.707-.602-4.269-3.33-3.706-5.867zm5.684 9.152c3.37-.423 6.154-2.822 6.992-6.137.773-3.48-.658-6.985-3.678-8.893-3.041-1.923-6.965-1.362-9.634.9-2.765 2.341-3.297 6.29-1.933 9.5 1.329 3.13 4.928 5.047 8.253 4.63z" mask="url(#b)"/></g></svg>