<svg xmlns="http://www.w3.org/2000/svg" width="700pt" height="700pt" viewBox="0 0 700 700"><path fill-rule="evenodd" d="M99.253 15.98h504.552c46.443 0 84.092 50.406 84.092 112.586V578.91c0 62.18-37.65 112.586-84.092 112.586H99.253c-46.443 0-84.092-50.406-84.092-112.586V128.566c0-62.18 37.65-112.587 84.092-112.587zM435.62 184.858v112.586h168.184V184.859Zm0 225.172v112.586h168.184V410.031Zm-210.23-56.293c34.688 0 63.069-37.998 63.069-84.44 0-46.441-28.381-84.44-63.07-84.44-34.687 0-63.068 37.999-63.068 84.44 0 46.442 28.381 84.44 63.069 84.44zm0 42.22c-42.572 0-126.138 27.442-126.138 84.44v42.22h252.276v-42.22c0-56.998-83.566-84.44-126.138-84.44z" style="stroke-width:1.39002;fill:#f06"/></svg>