<?xml version="1.0" encoding="UTF-8" standalone="no"?><svg xmlns="http://www.w3.org/2000/svg" width="700pt" height="700pt" viewBox="0 0 700 700"><path d="M84.582 0H618.71c43.653 0 79.039 52.281 79.039 94.66v.108c0 52.282-35.386 94.661-79.039 94.661H84.582c-43.653 0-79.039-52.281-79.039-94.66v-.108C5.543 42.379 40.93 0 84.582 0Zm534.126 255.257H84.673a79.078 94.708 0 0 0-68.488 47.355 79.077 94.707 0 0 0 0 94.72 79.08 94.71 0 0 0 68.488 47.355h534.035a79.078 94.708 0 0 0 68.488-47.355 79.077 94.707 0 0 0 0-94.72 79.08 94.71 0 0 0-68.488-47.355zm0 255.469H84.673a79.08 94.712 0 0 0-68.488 47.36 79.07 94.698 0 0 0 0 94.715 79.083 94.714 0 0 0 68.488 47.36h534.035a79.08 94.712 0 0 0 68.488-47.36 79.07 94.698 0 0 0 0-94.715 79.083 94.714 0 0 0-68.488-47.36z" style="stroke-width:1.14212"/></svg>